%TF.GenerationSoftware,KiCad,Pcbnew,9.0.7*%
%TF.CreationDate,2026-01-03T19:20:16+01:00*%
%TF.ProjectId,PCB,5043422e-6b69-4636-9164-5f7063625858,rev?*%
%TF.SameCoordinates,Original*%
%TF.FileFunction,Paste,Top*%
%TF.FilePolarity,Positive*%
%FSLAX46Y46*%
G04 Gerber Fmt 4.6, Leading zero omitted, Abs format (unit mm)*
G04 Created by KiCad (PCBNEW 9.0.7) date 2026-01-03 19:20:16*
%MOMM*%
%LPD*%
G01*
G04 APERTURE LIST*
G04 Aperture macros list*
%AMRoundRect*
0 Rectangle with rounded corners*
0 $1 Rounding radius*
0 $2 $3 $4 $5 $6 $7 $8 $9 X,Y pos of 4 corners*
0 Add a 4 corners polygon primitive as box body*
4,1,4,$2,$3,$4,$5,$6,$7,$8,$9,$2,$3,0*
0 Add four circle primitives for the rounded corners*
1,1,$1+$1,$2,$3*
1,1,$1+$1,$4,$5*
1,1,$1+$1,$6,$7*
1,1,$1+$1,$8,$9*
0 Add four rect primitives between the rounded corners*
20,1,$1+$1,$2,$3,$4,$5,0*
20,1,$1+$1,$4,$5,$6,$7,0*
20,1,$1+$1,$6,$7,$8,$9,0*
20,1,$1+$1,$8,$9,$2,$3,0*%
G04 Aperture macros list end*
%ADD10C,0.010000*%
%ADD11RoundRect,0.197500X-0.592500X1.002500X-0.592500X-1.002500X0.592500X-1.002500X0.592500X1.002500X0*%
%ADD12RoundRect,0.197500X0.592500X-1.002500X0.592500X1.002500X-0.592500X1.002500X-0.592500X-1.002500X0*%
%ADD13RoundRect,0.250000X0.250000X0.475000X-0.250000X0.475000X-0.250000X-0.475000X0.250000X-0.475000X0*%
%ADD14RoundRect,0.250000X-0.450000X0.262500X-0.450000X-0.262500X0.450000X-0.262500X0.450000X0.262500X0*%
%ADD15R,0.450000X1.475000*%
%ADD16RoundRect,0.250000X0.450000X-0.262500X0.450000X0.262500X-0.450000X0.262500X-0.450000X-0.262500X0*%
%ADD17R,0.900000X1.500000*%
%ADD18R,0.800000X0.800000*%
%ADD19RoundRect,0.250000X0.475000X-0.250000X0.475000X0.250000X-0.475000X0.250000X-0.475000X-0.250000X0*%
%ADD20RoundRect,0.032500X-0.387500X-0.097500X0.387500X-0.097500X0.387500X0.097500X-0.387500X0.097500X0*%
G04 APERTURE END LIST*
D10*
%TO.C,U2*%
X155731587Y-67157247D02*
X154656413Y-67157247D01*
X154656413Y-66192753D01*
X155731587Y-66192753D01*
X155731587Y-67157247D01*
G36*
X155731587Y-67157247D02*
G01*
X154656413Y-67157247D01*
X154656413Y-66192753D01*
X155731587Y-66192753D01*
X155731587Y-67157247D01*
G37*
%TD*%
D11*
%TO.C,C17*%
X113665000Y-86106000D03*
X113665000Y-89496000D03*
%TD*%
D12*
%TO.C,C3*%
X128397000Y-73648000D03*
X128397000Y-70258000D03*
%TD*%
%TO.C,C14*%
X103759000Y-73648000D03*
X103759000Y-70258000D03*
%TD*%
D13*
%TO.C,C16*%
X111948000Y-83312000D03*
X110048000Y-83312000D03*
%TD*%
D14*
%TO.C,R9*%
X119888000Y-88876500D03*
X119888000Y-90701500D03*
%TD*%
D15*
%TO.C,IC1*%
X133085000Y-76945000D03*
X132435000Y-76945000D03*
X131785000Y-76945000D03*
X131135000Y-76945000D03*
X130485000Y-76945000D03*
X129835000Y-76945000D03*
X129185000Y-76945000D03*
X128535000Y-76945000D03*
X128535000Y-82821000D03*
X129185000Y-82821000D03*
X129835000Y-82821000D03*
X130485000Y-82821000D03*
X131135000Y-82821000D03*
X131785000Y-82821000D03*
X132435000Y-82821000D03*
X133085000Y-82821000D03*
%TD*%
D14*
%TO.C,R3*%
X141859000Y-72517000D03*
X141859000Y-74342000D03*
%TD*%
D16*
%TO.C,R19*%
X160401000Y-68580000D03*
X160401000Y-66755000D03*
%TD*%
D12*
%TO.C,C13*%
X113665000Y-73660000D03*
X113665000Y-70270000D03*
%TD*%
D14*
%TO.C,R10*%
X119888000Y-85447500D03*
X119888000Y-87272500D03*
%TD*%
D11*
%TO.C,C15*%
X100711000Y-77973000D03*
X100711000Y-81363000D03*
%TD*%
D14*
%TO.C,R7*%
X141859000Y-85447500D03*
X141859000Y-87272500D03*
%TD*%
%TO.C,R8*%
X141859000Y-88876500D03*
X141859000Y-90701500D03*
%TD*%
%TO.C,R17*%
X95250000Y-88900000D03*
X95250000Y-90725000D03*
%TD*%
D11*
%TO.C,C18*%
X103759000Y-86106000D03*
X103759000Y-89496000D03*
%TD*%
%TO.C,C7*%
X128397000Y-86093000D03*
X128397000Y-89483000D03*
%TD*%
D14*
%TO.C,R20*%
X143891000Y-85446500D03*
X143891000Y-87271500D03*
%TD*%
%TO.C,R6*%
X119887000Y-72517000D03*
X119887000Y-74342000D03*
%TD*%
D11*
%TO.C,C8*%
X123444000Y-86111000D03*
X123444000Y-89501000D03*
%TD*%
D12*
%TO.C,C11*%
X108712000Y-73648000D03*
X108712000Y-70258000D03*
%TD*%
D14*
%TO.C,R15*%
X117221000Y-85447500D03*
X117221000Y-87272500D03*
%TD*%
%TO.C,R4*%
X141859000Y-69088000D03*
X141859000Y-70913000D03*
%TD*%
%TO.C,R2*%
X144018000Y-72493500D03*
X144018000Y-74318500D03*
%TD*%
D11*
%TO.C,C20*%
X98806000Y-86111000D03*
X98806000Y-89501000D03*
%TD*%
D14*
%TO.C,R5*%
X119888000Y-69088000D03*
X119888000Y-70913000D03*
%TD*%
D11*
%TO.C,C9*%
X125476000Y-77934000D03*
X125476000Y-81324000D03*
%TD*%
D14*
%TO.C,R16*%
X117221000Y-88876500D03*
X117221000Y-90701500D03*
%TD*%
D17*
%TO.C,U1*%
X164577000Y-71114000D03*
X163307000Y-71114000D03*
X162037000Y-71114000D03*
X160767000Y-71114000D03*
X159497000Y-71114000D03*
X158227000Y-71114000D03*
X156957000Y-71114000D03*
X155687000Y-71114000D03*
X154417000Y-71114000D03*
X153147000Y-71114000D03*
X151877000Y-71114000D03*
X150607000Y-71114000D03*
X149337000Y-71114000D03*
X148067000Y-71114000D03*
X148067000Y-88614000D03*
X149337000Y-88614000D03*
X150607000Y-88614000D03*
X151877000Y-88614000D03*
X153147000Y-88614000D03*
X154417000Y-88614000D03*
X155687000Y-88614000D03*
X156957000Y-88614000D03*
X158227000Y-88614000D03*
X159497000Y-88614000D03*
X160767000Y-88614000D03*
X162037000Y-88614000D03*
X163307000Y-88614000D03*
X164577000Y-88614000D03*
D18*
X160107000Y-77109000D03*
X160107000Y-78359000D03*
X160107000Y-79609000D03*
X158857000Y-77109000D03*
X158857000Y-78359000D03*
X158857000Y-79609000D03*
X157607000Y-77109000D03*
X157607000Y-78359000D03*
X157607000Y-79609000D03*
%TD*%
D19*
%TO.C,C21*%
X152019000Y-68067000D03*
X152019000Y-66167000D03*
%TD*%
D15*
%TO.C,IC2*%
X108447000Y-76945000D03*
X107797000Y-76945000D03*
X107147000Y-76945000D03*
X106497000Y-76945000D03*
X105847000Y-76945000D03*
X105197000Y-76945000D03*
X104547000Y-76945000D03*
X103897000Y-76945000D03*
X103897000Y-82821000D03*
X104547000Y-82821000D03*
X105197000Y-82821000D03*
X105847000Y-82821000D03*
X106497000Y-82821000D03*
X107147000Y-82821000D03*
X107797000Y-82821000D03*
X108447000Y-82821000D03*
%TD*%
D14*
%TO.C,R12*%
X117221000Y-69088000D03*
X117221000Y-70913000D03*
%TD*%
%TO.C,R18*%
X95250000Y-85471000D03*
X95250000Y-87296000D03*
%TD*%
%TO.C,R13*%
X95250000Y-69088000D03*
X95250000Y-70913000D03*
%TD*%
D12*
%TO.C,C12*%
X98806000Y-73660000D03*
X98806000Y-70270000D03*
%TD*%
D20*
%TO.C,U2*%
X153759000Y-65925000D03*
X153759000Y-66425000D03*
X153759000Y-66925000D03*
X153759000Y-67425000D03*
X156629000Y-67425000D03*
X156629000Y-66925000D03*
X156629000Y-66425000D03*
X156629000Y-65925000D03*
%TD*%
D11*
%TO.C,C19*%
X108712000Y-86106000D03*
X108712000Y-89496000D03*
%TD*%
D14*
%TO.C,R1*%
X144018000Y-69064500D03*
X144018000Y-70889500D03*
%TD*%
%TO.C,R21*%
X143891000Y-88877500D03*
X143891000Y-90702500D03*
%TD*%
D12*
%TO.C,C4*%
X123444000Y-73660000D03*
X123444000Y-70270000D03*
%TD*%
D14*
%TO.C,R14*%
X95250000Y-72517000D03*
X95250000Y-74342000D03*
%TD*%
D12*
%TO.C,C2*%
X133350000Y-73648000D03*
X133350000Y-70258000D03*
%TD*%
D19*
%TO.C,C22*%
X158369000Y-68641000D03*
X158369000Y-66741000D03*
%TD*%
D14*
%TO.C,R11*%
X117221000Y-72517000D03*
X117221000Y-74342000D03*
%TD*%
D13*
%TO.C,C10*%
X136586000Y-83312000D03*
X134686000Y-83312000D03*
%TD*%
D11*
%TO.C,C6*%
X133350000Y-86093000D03*
X133350000Y-89483000D03*
%TD*%
%TO.C,C5*%
X138303000Y-86111000D03*
X138303000Y-89501000D03*
%TD*%
D12*
%TO.C,C1*%
X138303000Y-73660000D03*
X138303000Y-70270000D03*
%TD*%
M02*
