%TF.GenerationSoftware,KiCad,Pcbnew,9.0.7*%
%TF.CreationDate,2026-01-03T19:20:15+01:00*%
%TF.ProjectId,PCB,5043422e-6b69-4636-9164-5f7063625858,rev?*%
%TF.SameCoordinates,Original*%
%TF.FileFunction,Copper,L2,Inr*%
%TF.FilePolarity,Positive*%
%FSLAX46Y46*%
G04 Gerber Fmt 4.6, Leading zero omitted, Abs format (unit mm)*
G04 Created by KiCad (PCBNEW 9.0.7) date 2026-01-03 19:20:15*
%MOMM*%
%LPD*%
G01*
G04 APERTURE LIST*
%TA.AperFunction,ComponentPad*%
%ADD10O,3.016000X1.508000*%
%TD*%
%TA.AperFunction,ComponentPad*%
%ADD11O,1.508000X3.016000*%
%TD*%
%TA.AperFunction,ViaPad*%
%ADD12C,0.600000*%
%TD*%
G04 APERTURE END LIST*
D10*
%TO.N,GND*%
%TO.C,J6*%
X123034500Y-106090000D03*
D11*
%TO.N,/IN_{L}6*%
X127534500Y-102590000D03*
%TO.N,/IN_{R}6*%
X118034500Y-97790000D03*
%TD*%
D10*
%TO.N,GND*%
%TO.C,J5*%
X136953000Y-106090000D03*
D11*
%TO.N,/IN_{L}5*%
X141453000Y-102590000D03*
%TO.N,/IN_{R}5*%
X131953000Y-97790000D03*
%TD*%
%TO.N,GND*%
%TO.C,J9*%
X81005000Y-80440500D03*
D10*
%TO.N,OUT_{L}*%
X84505000Y-84940500D03*
%TO.N,OUT_{R}*%
X89305000Y-75440500D03*
%TD*%
%TO.N,GND*%
%TO.C,J1*%
X136495500Y-54229000D03*
D11*
%TO.N,/IN_{L}1*%
X131995500Y-57729000D03*
%TO.N,/IN_{R}1*%
X141495500Y-62529000D03*
%TD*%
D10*
%TO.N,GND*%
%TO.C,J3*%
X108965500Y-54229000D03*
D11*
%TO.N,/IN_{L}3*%
X104465500Y-57729000D03*
%TO.N,/IN_{R}3*%
X113965500Y-62529000D03*
%TD*%
D10*
%TO.N,GND*%
%TO.C,J8*%
X95504000Y-106116000D03*
D11*
%TO.N,/IN_{L}8*%
X100004000Y-102616000D03*
%TO.N,/IN_{R}8*%
X90504000Y-97816000D03*
%TD*%
D10*
%TO.N,GND*%
%TO.C,J2*%
X122730500Y-54229000D03*
D11*
%TO.N,/IN_{L}2*%
X118230500Y-57729000D03*
%TO.N,/IN_{R}2*%
X127730500Y-62529000D03*
%TD*%
D10*
%TO.N,GND*%
%TO.C,J4*%
X95200500Y-54229000D03*
D11*
%TO.N,/IN_{L}4*%
X90700500Y-57729000D03*
%TO.N,/IN_{R}4*%
X100200500Y-62529000D03*
%TD*%
D10*
%TO.N,GND*%
%TO.C,J7*%
X109269500Y-106066000D03*
D11*
%TO.N,/IN_{L}7*%
X113769500Y-102566000D03*
%TO.N,/IN_{R}7*%
X104269500Y-97766000D03*
%TD*%
D12*
%TO.N,GND*%
X109994000Y-99150000D03*
X109494000Y-98650000D03*
X113494000Y-98650000D03*
X112994000Y-98150000D03*
X112494000Y-97650000D03*
X111994000Y-97150000D03*
X111494000Y-96650000D03*
X110994000Y-96150000D03*
X111494000Y-98150000D03*
X110994000Y-97650000D03*
X110494000Y-97150000D03*
X109994000Y-96650000D03*
X109494000Y-96150000D03*
X109994000Y-94650000D03*
X108494000Y-94650000D03*
X108994000Y-94150000D03*
X107494000Y-94150000D03*
X115994000Y-92650000D03*
X114994000Y-92650000D03*
X113994000Y-92650000D03*
X112994000Y-92650000D03*
X111994000Y-92650000D03*
X110994000Y-92650000D03*
X109994000Y-92650000D03*
X109494000Y-91650000D03*
X107994000Y-91650000D03*
X107994000Y-92650000D03*
X106994000Y-92650000D03*
X102994000Y-91650000D03*
X104994000Y-91650000D03*
X105494000Y-92150000D03*
X105994000Y-92650000D03*
X102994000Y-92650000D03*
X101994000Y-92650000D03*
X100994000Y-92650000D03*
X97994000Y-92650000D03*
X96994000Y-92650000D03*
X95994000Y-92650000D03*
X93994000Y-92650000D03*
X93494000Y-93150000D03*
X92994000Y-93650000D03*
X92494000Y-94150000D03*
X91994000Y-94650000D03*
X91494000Y-95150000D03*
X90994000Y-95650000D03*
X100994000Y-100150000D03*
X100994000Y-99150000D03*
X100994000Y-97150000D03*
X100994000Y-96150000D03*
X100994000Y-95150000D03*
X98994000Y-99150000D03*
X98994000Y-98150000D03*
X98994000Y-97150000D03*
X98994000Y-95150000D03*
X108494000Y-97650000D03*
X107994000Y-97150000D03*
X107494000Y-96650000D03*
X106994000Y-96150000D03*
X105994000Y-95150000D03*
X105494000Y-94650000D03*
X104994000Y-94150000D03*
X103994000Y-94150000D03*
X102994000Y-94150000D03*
X101994000Y-94150000D03*
X97994000Y-94150000D03*
X95494000Y-94150000D03*
X94494000Y-94650000D03*
X93994000Y-95150000D03*
X93494000Y-95650000D03*
X92994000Y-96150000D03*
X92494000Y-96650000D03*
X91994000Y-97150000D03*
X127994000Y-98150000D03*
X129994000Y-96150000D03*
X131994000Y-94150000D03*
X134994000Y-92150000D03*
X136994000Y-82150000D03*
X138994000Y-84150000D03*
X140994000Y-82150000D03*
X142994000Y-84150000D03*
X144994000Y-82150000D03*
X146994000Y-84150000D03*
X148994000Y-86150000D03*
X146994000Y-88150000D03*
X116994000Y-64150000D03*
X120994000Y-64150000D03*
X124994000Y-64150000D03*
X122994000Y-66150000D03*
X108994000Y-62150000D03*
X106994000Y-64150000D03*
X110994000Y-64150000D03*
X114994000Y-60150000D03*
X112994000Y-58150000D03*
X116994000Y-54150000D03*
X114994000Y-56150000D03*
X112994000Y-54150000D03*
X110994000Y-56150000D03*
X106994000Y-60150000D03*
X110994000Y-60150000D03*
X108994000Y-58150000D03*
X106994000Y-56150000D03*
X104994000Y-54150000D03*
X102994000Y-60150000D03*
X100994000Y-54150000D03*
X102994000Y-56150000D03*
X98994000Y-60150000D03*
X100994000Y-58150000D03*
X98994000Y-56150000D03*
X92994000Y-54150000D03*
X96994000Y-58150000D03*
X94994000Y-56150000D03*
X92994000Y-58150000D03*
X94994000Y-60150000D03*
X96994000Y-62150000D03*
X96994000Y-66150000D03*
X92994000Y-78150000D03*
X96994000Y-78150000D03*
X92994000Y-74150000D03*
X90994000Y-72150000D03*
X92994000Y-70150000D03*
X90994000Y-68150000D03*
X92994000Y-66150000D03*
X94994000Y-64150000D03*
X92994000Y-62150000D03*
X90994000Y-60150000D03*
X90994000Y-64150000D03*
X88994000Y-54150000D03*
X84994000Y-54150000D03*
X80994000Y-54150000D03*
X86994000Y-56150000D03*
X82994000Y-56150000D03*
X88994000Y-58150000D03*
X84994000Y-58150000D03*
X80994000Y-58150000D03*
X86994000Y-60150000D03*
X82994000Y-60150000D03*
X88994000Y-62150000D03*
X84994000Y-62150000D03*
X80994000Y-62150000D03*
X86994000Y-64150000D03*
X88994000Y-66150000D03*
X84994000Y-66150000D03*
X82994000Y-64150000D03*
X80994000Y-66150000D03*
X86994000Y-68150000D03*
X82994000Y-68150000D03*
X88994000Y-70150000D03*
X86994000Y-72150000D03*
X84994000Y-70150000D03*
X80994000Y-70150000D03*
X82994000Y-72150000D03*
X80994000Y-74150000D03*
X84994000Y-74150000D03*
X80994000Y-78150000D03*
X82994000Y-76150000D03*
X86994000Y-76150000D03*
X90994000Y-80150000D03*
X88994000Y-78150000D03*
X84994000Y-78150000D03*
X82994000Y-80150000D03*
X84994000Y-82150000D03*
X86994000Y-80150000D03*
X86994000Y-84150000D03*
X130994000Y-72150000D03*
X130994000Y-66150000D03*
X118994000Y-60150000D03*
X120994000Y-58150000D03*
X126994000Y-56150000D03*
X122994000Y-56150000D03*
X124994000Y-54150000D03*
X128994000Y-54150000D03*
X132994000Y-54150000D03*
X126994000Y-60150000D03*
X130994000Y-60150000D03*
X132994000Y-62150000D03*
X134994000Y-68150000D03*
X136994000Y-66150000D03*
X138994000Y-64150000D03*
X134994000Y-64150000D03*
X136994000Y-62150000D03*
X134994000Y-60150000D03*
X134994000Y-56150000D03*
X138994000Y-60150000D03*
X136994000Y-58150000D03*
X138994000Y-56150000D03*
X140994000Y-54150000D03*
X140994000Y-58150000D03*
X164994000Y-54150000D03*
X160994000Y-54150000D03*
X156994000Y-54150000D03*
X152994000Y-54150000D03*
X148994000Y-54150000D03*
X144994000Y-54150000D03*
X142994000Y-56150000D03*
X146994000Y-56150000D03*
X150994000Y-56150000D03*
X154994000Y-56150000D03*
X158994000Y-56150000D03*
X162994000Y-56150000D03*
X164994000Y-58150000D03*
X160994000Y-58150000D03*
X156994000Y-58150000D03*
X152994000Y-58150000D03*
X148994000Y-58150000D03*
X144994000Y-58150000D03*
X142994000Y-60150000D03*
X140994000Y-66150000D03*
X142994000Y-64150000D03*
X144994000Y-66150000D03*
X144994000Y-62150000D03*
X146994000Y-60150000D03*
X150994000Y-60150000D03*
X154994000Y-60150000D03*
X158994000Y-60150000D03*
X162994000Y-60150000D03*
X164994000Y-62150000D03*
X162994000Y-64150000D03*
X160994000Y-62150000D03*
X158994000Y-64150000D03*
X156994000Y-62150000D03*
X154994000Y-64150000D03*
X152994000Y-62150000D03*
X148994000Y-62150000D03*
X148994000Y-66150000D03*
X150994000Y-64150000D03*
X146994000Y-64150000D03*
X150994000Y-68150000D03*
X146994000Y-68150000D03*
X146994000Y-72150000D03*
X138994000Y-76150000D03*
X142994000Y-76150000D03*
X144994000Y-74150000D03*
X146994000Y-76150000D03*
X148994000Y-74150000D03*
X164994000Y-74150000D03*
X162994000Y-76150000D03*
X160994000Y-74150000D03*
X158994000Y-76150000D03*
X156994000Y-74150000D03*
X154994000Y-76150000D03*
X152994000Y-74150000D03*
X150994000Y-76150000D03*
X152994000Y-78150000D03*
X148994000Y-78150000D03*
X150994000Y-80150000D03*
X154994000Y-80150000D03*
X160994000Y-78150000D03*
X164994000Y-78150000D03*
X162994000Y-80150000D03*
X164994000Y-82150000D03*
X160994000Y-82150000D03*
X156994000Y-82150000D03*
X152994000Y-82150000D03*
X154994000Y-84150000D03*
X158994000Y-84150000D03*
X162994000Y-84150000D03*
X164994000Y-86150000D03*
X160994000Y-86150000D03*
X156994000Y-86150000D03*
X164994000Y-90150000D03*
X160994000Y-90150000D03*
X148994000Y-90150000D03*
X156994000Y-90150000D03*
X152994000Y-90150000D03*
X128994000Y-92150000D03*
X125994000Y-94150000D03*
X122994000Y-96150000D03*
X122994000Y-100150000D03*
X118994000Y-100150000D03*
X123994000Y-101150000D03*
X124994000Y-101150000D03*
X125994000Y-101150000D03*
X124994000Y-99150000D03*
X126994000Y-99150000D03*
X125994000Y-99150000D03*
X127994000Y-99150000D03*
X128994000Y-99150000D03*
X129994000Y-99150000D03*
X128994000Y-101150000D03*
X129994000Y-101150000D03*
X130994000Y-101150000D03*
X131994000Y-101150000D03*
X132994000Y-101150000D03*
X133994000Y-101150000D03*
X133994000Y-99150000D03*
X134994000Y-99150000D03*
X135994000Y-99150000D03*
X136994000Y-99150000D03*
X137994000Y-99150000D03*
X138994000Y-99150000D03*
X139994000Y-99150000D03*
X140994000Y-100150000D03*
X137994000Y-101150000D03*
X136994000Y-101150000D03*
X135994000Y-101150000D03*
X134994000Y-101150000D03*
X133994000Y-98150000D03*
X134994000Y-96150000D03*
X138994000Y-92150000D03*
X136994000Y-94150000D03*
X136994000Y-98150000D03*
X140994000Y-98150000D03*
X138994000Y-96150000D03*
X140994000Y-94150000D03*
X142994000Y-92150000D03*
X144994000Y-94150000D03*
X142994000Y-96150000D03*
X144994000Y-98150000D03*
X142994000Y-100150000D03*
X144994000Y-102150000D03*
X162994000Y-92150000D03*
X160994000Y-94150000D03*
X152994000Y-94150000D03*
X148994000Y-94150000D03*
X156994000Y-94150000D03*
X154994000Y-92150000D03*
X150994000Y-92150000D03*
X146994000Y-92150000D03*
X164994000Y-94150000D03*
X158994000Y-92150000D03*
X162994000Y-96150000D03*
X160994000Y-98150000D03*
X152994000Y-98150000D03*
X148994000Y-98150000D03*
X156994000Y-98150000D03*
X154994000Y-96150000D03*
X150994000Y-96150000D03*
X146994000Y-96150000D03*
X164994000Y-98150000D03*
X158994000Y-96150000D03*
X162994000Y-100150000D03*
X160994000Y-102150000D03*
X152994000Y-102150000D03*
X148994000Y-102150000D03*
X156994000Y-102150000D03*
X154994000Y-100150000D03*
X150994000Y-100150000D03*
X146994000Y-100150000D03*
X164994000Y-102150000D03*
X158994000Y-100150000D03*
X164994000Y-106150000D03*
X162994000Y-104150000D03*
X160994000Y-106150000D03*
X158994000Y-104150000D03*
X156994000Y-106150000D03*
X154994000Y-104150000D03*
X152994000Y-106150000D03*
X150994000Y-104150000D03*
X148994000Y-106150000D03*
X146994000Y-104150000D03*
X144994000Y-106150000D03*
X142994000Y-104150000D03*
X140994000Y-106150000D03*
X138994000Y-104150000D03*
X136994000Y-102150000D03*
X134994000Y-104150000D03*
X128994000Y-102150000D03*
X132994000Y-102150000D03*
X132994000Y-106150000D03*
X130994000Y-104150000D03*
X128994000Y-106150000D03*
X124994000Y-106150000D03*
X122994000Y-104150000D03*
X120994000Y-106150000D03*
X116994000Y-102150000D03*
X118994000Y-104150000D03*
X116994000Y-106150000D03*
X114994000Y-104150000D03*
X112994000Y-106150000D03*
X106994000Y-96150000D03*
X110994000Y-104150000D03*
X108994000Y-98150000D03*
X110994000Y-100150000D03*
X108994000Y-102150000D03*
X106994000Y-100150000D03*
X106994000Y-104150000D03*
X100994000Y-106150000D03*
X104994000Y-106150000D03*
X102994000Y-104150000D03*
X104994000Y-102150000D03*
X102994000Y-100150000D03*
X100994000Y-98150000D03*
X102994000Y-96150000D03*
X100994000Y-94150000D03*
X98994000Y-92650000D03*
X96994000Y-90150000D03*
X94994000Y-92650000D03*
X100994000Y-86150000D03*
X98994000Y-84150000D03*
X96994000Y-86150000D03*
X96994000Y-82150000D03*
X92994000Y-82150000D03*
X88994000Y-82150000D03*
X90994000Y-84150000D03*
X80994000Y-86150000D03*
X88994000Y-86150000D03*
X92994000Y-86150000D03*
X90994000Y-88150000D03*
X86994000Y-88150000D03*
X82994000Y-88150000D03*
X98994000Y-94150000D03*
X96994000Y-94150000D03*
X98994000Y-96150000D03*
X94994000Y-96150000D03*
X98994000Y-100150000D03*
X96994000Y-98150000D03*
X92994000Y-98150000D03*
X96994000Y-102150000D03*
X94994000Y-100150000D03*
X90994000Y-100150000D03*
X94994000Y-104150000D03*
X92994000Y-102150000D03*
X92994000Y-106150000D03*
X90994000Y-104150000D03*
X92994000Y-90150000D03*
X88994000Y-90150000D03*
X84994000Y-90150000D03*
X90994000Y-92150000D03*
X86994000Y-92150000D03*
X80994000Y-90150000D03*
X82994000Y-92150000D03*
X88994000Y-106150000D03*
X88994000Y-102150000D03*
X88994000Y-94150000D03*
X86994000Y-96150000D03*
X84994000Y-94150000D03*
X80994000Y-94150000D03*
X82994000Y-96150000D03*
X84994000Y-98150000D03*
X80994000Y-98150000D03*
X86994000Y-100150000D03*
X86994000Y-104150000D03*
X82994000Y-100150000D03*
X84994000Y-102150000D03*
X80994000Y-102150000D03*
X82994000Y-104150000D03*
X84994000Y-106150000D03*
X80994000Y-106150000D03*
%TO.N,+5V*%
X144018000Y-69064500D03*
X152019000Y-66167000D03*
X110048000Y-83312000D03*
X143891000Y-85447500D03*
X134686000Y-83312000D03*
%TO.N,GND*%
X131785000Y-77978000D03*
X157607000Y-77109000D03*
X107147001Y-81820107D03*
X158857000Y-78359000D03*
X164577000Y-88614000D03*
X157607000Y-78359000D03*
X143891000Y-90701500D03*
X155194000Y-66675000D03*
X164577000Y-71114000D03*
X158857000Y-77109000D03*
X157607000Y-79609000D03*
X158857000Y-79609000D03*
X107146999Y-77945893D03*
X131785000Y-81788000D03*
X158369000Y-68641000D03*
X160107000Y-78359000D03*
X136586000Y-83312000D03*
X160107000Y-79609000D03*
X144018000Y-74318500D03*
X111948000Y-83312000D03*
X160107000Y-77109000D03*
X152019000Y-68067000D03*
%TO.N,A0*%
X109093000Y-76962000D03*
X133985000Y-78232000D03*
%TO.N,EN*%
X134747000Y-78867000D03*
X107797000Y-78359000D03*
%TO.N,A2*%
X134747000Y-79756000D03*
X108202420Y-81623916D03*
%TO.N,A1*%
X109093000Y-82296000D03*
X133985000Y-80391000D03*
%TO.N,/IN_{L}1*%
X113665000Y-70270000D03*
%TO.N,/IN_{L}2*%
X108712000Y-70258000D03*
%TO.N,/IN_{L}3*%
X103759000Y-70258000D03*
%TO.N,/IN_{L}4*%
X98806000Y-70270000D03*
%TO.N,/IN_{L}5*%
X113665000Y-89496000D03*
%TO.N,/IN_{L}6*%
X108712000Y-89496000D03*
%TO.N,/IN_{L}7*%
X103759000Y-89496000D03*
%TO.N,/IN_{L}8*%
X98806000Y-89501000D03*
%TO.N,+2V5*%
X143891000Y-87272500D03*
X119888000Y-87272500D03*
X95250000Y-69088000D03*
X117221000Y-90701500D03*
X95250000Y-87296000D03*
X119888000Y-72517000D03*
X144018000Y-70889500D03*
X117221000Y-87272500D03*
X141859000Y-90701500D03*
X95250000Y-90725000D03*
X119888000Y-90701500D03*
X119888000Y-69088000D03*
X141859000Y-87272500D03*
X141859000Y-72517000D03*
X95250000Y-72517000D03*
X144018000Y-72493500D03*
X141859000Y-69088000D03*
X117221000Y-72517000D03*
X117221000Y-69088000D03*
X143891000Y-88876500D03*
%TD*%
%TA.AperFunction,Conductor*%
%TO.N,GND*%
G36*
X165431539Y-52670185D02*
G01*
X165477294Y-52722989D01*
X165488500Y-52774500D01*
X165488500Y-107525500D01*
X165468815Y-107592539D01*
X165416011Y-107638294D01*
X165364500Y-107649500D01*
X79618500Y-107649500D01*
X79551461Y-107629815D01*
X79505706Y-107577011D01*
X79494500Y-107525500D01*
X79494500Y-105866000D01*
X93519964Y-105866000D01*
X94570988Y-105866000D01*
X94538075Y-105923007D01*
X94504000Y-106050174D01*
X94504000Y-106181826D01*
X94538075Y-106308993D01*
X94570988Y-106366000D01*
X93519964Y-106366000D01*
X93526876Y-106409642D01*
X93526876Y-106409643D01*
X93587873Y-106597371D01*
X93677485Y-106773242D01*
X93793496Y-106932919D01*
X93793500Y-106932924D01*
X93933075Y-107072499D01*
X93933080Y-107072503D01*
X94092757Y-107188514D01*
X94268626Y-107278126D01*
X94456353Y-107339123D01*
X94651303Y-107370000D01*
X95254000Y-107370000D01*
X95254000Y-106616000D01*
X95754000Y-106616000D01*
X95754000Y-107370000D01*
X96356697Y-107370000D01*
X96551646Y-107339123D01*
X96739373Y-107278126D01*
X96915242Y-107188514D01*
X97074919Y-107072503D01*
X97074924Y-107072499D01*
X97214499Y-106932924D01*
X97214503Y-106932919D01*
X97330514Y-106773242D01*
X97420126Y-106597371D01*
X97481123Y-106409643D01*
X97481123Y-106409642D01*
X97488036Y-106366000D01*
X96437012Y-106366000D01*
X96469925Y-106308993D01*
X96504000Y-106181826D01*
X96504000Y-106050174D01*
X96469925Y-105923007D01*
X96437012Y-105866000D01*
X97488036Y-105866000D01*
X97481123Y-105822356D01*
X97479058Y-105816000D01*
X107285464Y-105816000D01*
X108336488Y-105816000D01*
X108303575Y-105873007D01*
X108269500Y-106000174D01*
X108269500Y-106131826D01*
X108303575Y-106258993D01*
X108336488Y-106316000D01*
X107285464Y-106316000D01*
X107292376Y-106359642D01*
X107292376Y-106359643D01*
X107353373Y-106547371D01*
X107442985Y-106723242D01*
X107558996Y-106882919D01*
X107559000Y-106882924D01*
X107698575Y-107022499D01*
X107698580Y-107022503D01*
X107858257Y-107138514D01*
X108034126Y-107228126D01*
X108221853Y-107289123D01*
X108416803Y-107320000D01*
X109019500Y-107320000D01*
X109019500Y-106566000D01*
X109519500Y-106566000D01*
X109519500Y-107320000D01*
X110122197Y-107320000D01*
X110317146Y-107289123D01*
X110504873Y-107228126D01*
X110680742Y-107138514D01*
X110840419Y-107022503D01*
X110840424Y-107022499D01*
X110979999Y-106882924D01*
X110980003Y-106882919D01*
X111096014Y-106723242D01*
X111185626Y-106547371D01*
X111246623Y-106359643D01*
X111253536Y-106316000D01*
X110202512Y-106316000D01*
X110235425Y-106258993D01*
X110269500Y-106131826D01*
X110269500Y-106000174D01*
X110235425Y-105873007D01*
X110216368Y-105840000D01*
X121050464Y-105840000D01*
X122101488Y-105840000D01*
X122068575Y-105897007D01*
X122034500Y-106024174D01*
X122034500Y-106155826D01*
X122068575Y-106282993D01*
X122101488Y-106340000D01*
X121050464Y-106340000D01*
X121057376Y-106383642D01*
X121057376Y-106383643D01*
X121118373Y-106571371D01*
X121207985Y-106747242D01*
X121323996Y-106906919D01*
X121324000Y-106906924D01*
X121463575Y-107046499D01*
X121463580Y-107046503D01*
X121623257Y-107162514D01*
X121799126Y-107252126D01*
X121986853Y-107313123D01*
X122181803Y-107344000D01*
X122784500Y-107344000D01*
X122784500Y-106590000D01*
X123284500Y-106590000D01*
X123284500Y-107344000D01*
X123887197Y-107344000D01*
X124082146Y-107313123D01*
X124269873Y-107252126D01*
X124445742Y-107162514D01*
X124605419Y-107046503D01*
X124605424Y-107046499D01*
X124744999Y-106906924D01*
X124745003Y-106906919D01*
X124861014Y-106747242D01*
X124950626Y-106571371D01*
X125011623Y-106383643D01*
X125011623Y-106383642D01*
X125018536Y-106340000D01*
X123967512Y-106340000D01*
X124000425Y-106282993D01*
X124034500Y-106155826D01*
X124034500Y-106024174D01*
X124000425Y-105897007D01*
X123967512Y-105840000D01*
X125018536Y-105840000D01*
X134968964Y-105840000D01*
X136019988Y-105840000D01*
X135987075Y-105897007D01*
X135953000Y-106024174D01*
X135953000Y-106155826D01*
X135987075Y-106282993D01*
X136019988Y-106340000D01*
X134968964Y-106340000D01*
X134975876Y-106383642D01*
X134975876Y-106383643D01*
X135036873Y-106571371D01*
X135126485Y-106747242D01*
X135242496Y-106906919D01*
X135242500Y-106906924D01*
X135382075Y-107046499D01*
X135382080Y-107046503D01*
X135541757Y-107162514D01*
X135717626Y-107252126D01*
X135905353Y-107313123D01*
X136100303Y-107344000D01*
X136703000Y-107344000D01*
X136703000Y-106590000D01*
X137203000Y-106590000D01*
X137203000Y-107344000D01*
X137805697Y-107344000D01*
X138000646Y-107313123D01*
X138188373Y-107252126D01*
X138364242Y-107162514D01*
X138523919Y-107046503D01*
X138523924Y-107046499D01*
X138663499Y-106906924D01*
X138663503Y-106906919D01*
X138779514Y-106747242D01*
X138869126Y-106571371D01*
X138930123Y-106383643D01*
X138930123Y-106383642D01*
X138937036Y-106340000D01*
X137886012Y-106340000D01*
X137918925Y-106282993D01*
X137953000Y-106155826D01*
X137953000Y-106024174D01*
X137918925Y-105897007D01*
X137886012Y-105840000D01*
X138937036Y-105840000D01*
X138930123Y-105796357D01*
X138930123Y-105796356D01*
X138869126Y-105608628D01*
X138779514Y-105432757D01*
X138663503Y-105273080D01*
X138663499Y-105273075D01*
X138523924Y-105133500D01*
X138523919Y-105133496D01*
X138364242Y-105017485D01*
X138188373Y-104927873D01*
X138000646Y-104866876D01*
X137805697Y-104836000D01*
X137203000Y-104836000D01*
X137203000Y-105590000D01*
X136703000Y-105590000D01*
X136703000Y-104836000D01*
X136100303Y-104836000D01*
X135905353Y-104866876D01*
X135717626Y-104927873D01*
X135541757Y-105017485D01*
X135382080Y-105133496D01*
X135382075Y-105133500D01*
X135242500Y-105273075D01*
X135242496Y-105273080D01*
X135126485Y-105432757D01*
X135036873Y-105608628D01*
X134975876Y-105796356D01*
X134975876Y-105796357D01*
X134968964Y-105840000D01*
X125018536Y-105840000D01*
X125011623Y-105796357D01*
X125011623Y-105796356D01*
X124950626Y-105608628D01*
X124861014Y-105432757D01*
X124745003Y-105273080D01*
X124744999Y-105273075D01*
X124605424Y-105133500D01*
X124605419Y-105133496D01*
X124445742Y-105017485D01*
X124269873Y-104927873D01*
X124082146Y-104866876D01*
X123887197Y-104836000D01*
X123284500Y-104836000D01*
X123284500Y-105590000D01*
X122784500Y-105590000D01*
X122784500Y-104836000D01*
X122181803Y-104836000D01*
X121986853Y-104866876D01*
X121799126Y-104927873D01*
X121623257Y-105017485D01*
X121463580Y-105133496D01*
X121463575Y-105133500D01*
X121324000Y-105273075D01*
X121323996Y-105273080D01*
X121207985Y-105432757D01*
X121118373Y-105608628D01*
X121057376Y-105796356D01*
X121057376Y-105796357D01*
X121050464Y-105840000D01*
X110216368Y-105840000D01*
X110202512Y-105816000D01*
X111253536Y-105816000D01*
X111253536Y-105815999D01*
X111246623Y-105772357D01*
X111246623Y-105772356D01*
X111185626Y-105584628D01*
X111096014Y-105408757D01*
X110980003Y-105249080D01*
X110979999Y-105249075D01*
X110840424Y-105109500D01*
X110840419Y-105109496D01*
X110680742Y-104993485D01*
X110504873Y-104903873D01*
X110317146Y-104842876D01*
X110122197Y-104812000D01*
X109519500Y-104812000D01*
X109519500Y-105566000D01*
X109019500Y-105566000D01*
X109019500Y-104812000D01*
X108416803Y-104812000D01*
X108221853Y-104842876D01*
X108034126Y-104903873D01*
X107858257Y-104993485D01*
X107698580Y-105109496D01*
X107698575Y-105109500D01*
X107559000Y-105249075D01*
X107558996Y-105249080D01*
X107442985Y-105408757D01*
X107353373Y-105584628D01*
X107292376Y-105772356D01*
X107292376Y-105772357D01*
X107285464Y-105816000D01*
X97479058Y-105816000D01*
X97420126Y-105634628D01*
X97330514Y-105458757D01*
X97214503Y-105299080D01*
X97214499Y-105299075D01*
X97074924Y-105159500D01*
X97074919Y-105159496D01*
X96915242Y-105043485D01*
X96739373Y-104953873D01*
X96551646Y-104892876D01*
X96356697Y-104862000D01*
X95754000Y-104862000D01*
X95754000Y-105616000D01*
X95254000Y-105616000D01*
X95254000Y-104862000D01*
X94651303Y-104862000D01*
X94456353Y-104892876D01*
X94268626Y-104953873D01*
X94092757Y-105043485D01*
X93933080Y-105159496D01*
X93933075Y-105159500D01*
X93793500Y-105299075D01*
X93793496Y-105299080D01*
X93677485Y-105458757D01*
X93587873Y-105634628D01*
X93526876Y-105822356D01*
X93526876Y-105822357D01*
X93519964Y-105866000D01*
X79494500Y-105866000D01*
X79494500Y-101763263D01*
X98749500Y-101763263D01*
X98749500Y-103468736D01*
X98780389Y-103663763D01*
X98825162Y-103801558D01*
X98841409Y-103851561D01*
X98917810Y-104001504D01*
X98931058Y-104027504D01*
X99047115Y-104187246D01*
X99186753Y-104326884D01*
X99336234Y-104435486D01*
X99346499Y-104442944D01*
X99522439Y-104532591D01*
X99630217Y-104567610D01*
X99710236Y-104593610D01*
X99905264Y-104624500D01*
X99905269Y-104624500D01*
X100102736Y-104624500D01*
X100297763Y-104593610D01*
X100485561Y-104532591D01*
X100661501Y-104442944D01*
X100751192Y-104377779D01*
X100821246Y-104326884D01*
X100821248Y-104326881D01*
X100821252Y-104326879D01*
X100960879Y-104187252D01*
X100960881Y-104187248D01*
X100960884Y-104187246D01*
X101011779Y-104117192D01*
X101076944Y-104027501D01*
X101166591Y-103851561D01*
X101227610Y-103663763D01*
X101235529Y-103613763D01*
X101258500Y-103468736D01*
X101258500Y-101763264D01*
X101252882Y-101727796D01*
X101252882Y-101727795D01*
X101250580Y-101713263D01*
X112515000Y-101713263D01*
X112515000Y-103418736D01*
X112545889Y-103613763D01*
X112606908Y-103801558D01*
X112606909Y-103801561D01*
X112632386Y-103851561D01*
X112696558Y-103977504D01*
X112812615Y-104137246D01*
X112952253Y-104276884D01*
X113101734Y-104385486D01*
X113111999Y-104392944D01*
X113287939Y-104482591D01*
X113413137Y-104523270D01*
X113475736Y-104543610D01*
X113670764Y-104574500D01*
X113670769Y-104574500D01*
X113868236Y-104574500D01*
X114063263Y-104543610D01*
X114097176Y-104532591D01*
X114251061Y-104482591D01*
X114427001Y-104392944D01*
X114516692Y-104327779D01*
X114586746Y-104276884D01*
X114586748Y-104276881D01*
X114586752Y-104276879D01*
X114726379Y-104137252D01*
X114726381Y-104137248D01*
X114726384Y-104137246D01*
X114806117Y-104027501D01*
X114842444Y-103977501D01*
X114932091Y-103801561D01*
X114993110Y-103613763D01*
X115024000Y-103418736D01*
X115024000Y-101737263D01*
X126280000Y-101737263D01*
X126280000Y-103442736D01*
X126310889Y-103637763D01*
X126364110Y-103801558D01*
X126371909Y-103825561D01*
X126449329Y-103977504D01*
X126461558Y-104001504D01*
X126577615Y-104161246D01*
X126717253Y-104300884D01*
X126866734Y-104409486D01*
X126876999Y-104416944D01*
X127052939Y-104506591D01*
X127166872Y-104543610D01*
X127240736Y-104567610D01*
X127435764Y-104598500D01*
X127435769Y-104598500D01*
X127633236Y-104598500D01*
X127828263Y-104567610D01*
X128016061Y-104506591D01*
X128192001Y-104416944D01*
X128315966Y-104326879D01*
X128351746Y-104300884D01*
X128351748Y-104300881D01*
X128351752Y-104300879D01*
X128491379Y-104161252D01*
X128491381Y-104161248D01*
X128491384Y-104161246D01*
X128542279Y-104091192D01*
X128607444Y-104001501D01*
X128697091Y-103825561D01*
X128758110Y-103637763D01*
X128761911Y-103613763D01*
X128789000Y-103442736D01*
X128789000Y-101737263D01*
X140198500Y-101737263D01*
X140198500Y-103442736D01*
X140229389Y-103637763D01*
X140282610Y-103801558D01*
X140290409Y-103825561D01*
X140367829Y-103977504D01*
X140380058Y-104001504D01*
X140496115Y-104161246D01*
X140635753Y-104300884D01*
X140785234Y-104409486D01*
X140795499Y-104416944D01*
X140971439Y-104506591D01*
X141085372Y-104543610D01*
X141159236Y-104567610D01*
X141354264Y-104598500D01*
X141354269Y-104598500D01*
X141551736Y-104598500D01*
X141746763Y-104567610D01*
X141934561Y-104506591D01*
X142110501Y-104416944D01*
X142234466Y-104326879D01*
X142270246Y-104300884D01*
X142270248Y-104300881D01*
X142270252Y-104300879D01*
X142409879Y-104161252D01*
X142409881Y-104161248D01*
X142409884Y-104161246D01*
X142460779Y-104091192D01*
X142525944Y-104001501D01*
X142615591Y-103825561D01*
X142676610Y-103637763D01*
X142680411Y-103613763D01*
X142707500Y-103442736D01*
X142707500Y-101737263D01*
X142676610Y-101542236D01*
X142656270Y-101479637D01*
X142615591Y-101354439D01*
X142525944Y-101178499D01*
X142508504Y-101154495D01*
X142409884Y-101018753D01*
X142270246Y-100879115D01*
X142110504Y-100763058D01*
X142110503Y-100763057D01*
X142110501Y-100763056D01*
X141934561Y-100673409D01*
X141934558Y-100673408D01*
X141746763Y-100612389D01*
X141551736Y-100581500D01*
X141551731Y-100581500D01*
X141354269Y-100581500D01*
X141354264Y-100581500D01*
X141159236Y-100612389D01*
X140971441Y-100673408D01*
X140795495Y-100763058D01*
X140635753Y-100879115D01*
X140496115Y-101018753D01*
X140380058Y-101178495D01*
X140290408Y-101354441D01*
X140229389Y-101542236D01*
X140198500Y-101737263D01*
X128789000Y-101737263D01*
X128758110Y-101542236D01*
X128737770Y-101479637D01*
X128697091Y-101354439D01*
X128607444Y-101178499D01*
X128590004Y-101154495D01*
X128491384Y-101018753D01*
X128351746Y-100879115D01*
X128192004Y-100763058D01*
X128192003Y-100763057D01*
X128192001Y-100763056D01*
X128016061Y-100673409D01*
X128016058Y-100673408D01*
X127828263Y-100612389D01*
X127633236Y-100581500D01*
X127633231Y-100581500D01*
X127435769Y-100581500D01*
X127435764Y-100581500D01*
X127240736Y-100612389D01*
X127052941Y-100673408D01*
X126876995Y-100763058D01*
X126717253Y-100879115D01*
X126577615Y-101018753D01*
X126461558Y-101178495D01*
X126371908Y-101354441D01*
X126310889Y-101542236D01*
X126280000Y-101737263D01*
X115024000Y-101737263D01*
X115024000Y-101713263D01*
X114993110Y-101518236D01*
X114972770Y-101455637D01*
X114932091Y-101330439D01*
X114842444Y-101154499D01*
X114834986Y-101144234D01*
X114726384Y-100994753D01*
X114586746Y-100855115D01*
X114427004Y-100739058D01*
X114427003Y-100739057D01*
X114427001Y-100739056D01*
X114251061Y-100649409D01*
X114217145Y-100638389D01*
X114063263Y-100588389D01*
X113868236Y-100557500D01*
X113868231Y-100557500D01*
X113670769Y-100557500D01*
X113670764Y-100557500D01*
X113475736Y-100588389D01*
X113287941Y-100649408D01*
X113111995Y-100739058D01*
X112952253Y-100855115D01*
X112812615Y-100994753D01*
X112696558Y-101154495D01*
X112606908Y-101330441D01*
X112545889Y-101518236D01*
X112515000Y-101713263D01*
X101250580Y-101713263D01*
X101227610Y-101568236D01*
X101207270Y-101505637D01*
X101166591Y-101380439D01*
X101076944Y-101204499D01*
X101058051Y-101178495D01*
X100960884Y-101044753D01*
X100821246Y-100905115D01*
X100661504Y-100789058D01*
X100661503Y-100789057D01*
X100661501Y-100789056D01*
X100485561Y-100699409D01*
X100485558Y-100699408D01*
X100297763Y-100638389D01*
X100102736Y-100607500D01*
X100102731Y-100607500D01*
X99905269Y-100607500D01*
X99905264Y-100607500D01*
X99710236Y-100638389D01*
X99522441Y-100699408D01*
X99346495Y-100789058D01*
X99186753Y-100905115D01*
X99047115Y-101044753D01*
X98931058Y-101204495D01*
X98841408Y-101380441D01*
X98780389Y-101568236D01*
X98749500Y-101763263D01*
X79494500Y-101763263D01*
X79494500Y-96963263D01*
X89249500Y-96963263D01*
X89249500Y-98668736D01*
X89280389Y-98863763D01*
X89325162Y-99001558D01*
X89341409Y-99051561D01*
X89417810Y-99201504D01*
X89431058Y-99227504D01*
X89547115Y-99387246D01*
X89686753Y-99526884D01*
X89836234Y-99635486D01*
X89846499Y-99642944D01*
X90022439Y-99732591D01*
X90130217Y-99767610D01*
X90210236Y-99793610D01*
X90405264Y-99824500D01*
X90405269Y-99824500D01*
X90602736Y-99824500D01*
X90797763Y-99793610D01*
X90985561Y-99732591D01*
X91161501Y-99642944D01*
X91251192Y-99577779D01*
X91321246Y-99526884D01*
X91321248Y-99526881D01*
X91321252Y-99526879D01*
X91460879Y-99387252D01*
X91460881Y-99387248D01*
X91460884Y-99387246D01*
X91511779Y-99317192D01*
X91576944Y-99227501D01*
X91666591Y-99051561D01*
X91727610Y-98863763D01*
X91735529Y-98813763D01*
X91758500Y-98668736D01*
X91758500Y-96963264D01*
X91752882Y-96927796D01*
X91752882Y-96927795D01*
X91750580Y-96913263D01*
X103015000Y-96913263D01*
X103015000Y-98618736D01*
X103045889Y-98813763D01*
X103106908Y-99001558D01*
X103106909Y-99001561D01*
X103132386Y-99051561D01*
X103196558Y-99177504D01*
X103312615Y-99337246D01*
X103452253Y-99476884D01*
X103601734Y-99585486D01*
X103611999Y-99592944D01*
X103787939Y-99682591D01*
X103913137Y-99723270D01*
X103975736Y-99743610D01*
X104170764Y-99774500D01*
X104170769Y-99774500D01*
X104368236Y-99774500D01*
X104563263Y-99743610D01*
X104597176Y-99732591D01*
X104751061Y-99682591D01*
X104927001Y-99592944D01*
X105016692Y-99527779D01*
X105086746Y-99476884D01*
X105086748Y-99476881D01*
X105086752Y-99476879D01*
X105226379Y-99337252D01*
X105226381Y-99337248D01*
X105226384Y-99337246D01*
X105306117Y-99227501D01*
X105342444Y-99177501D01*
X105432091Y-99001561D01*
X105493110Y-98813763D01*
X105524000Y-98618736D01*
X105524000Y-96937263D01*
X116780000Y-96937263D01*
X116780000Y-98642736D01*
X116810889Y-98837763D01*
X116864110Y-99001558D01*
X116871909Y-99025561D01*
X116949329Y-99177504D01*
X116961558Y-99201504D01*
X117077615Y-99361246D01*
X117217253Y-99500884D01*
X117366734Y-99609486D01*
X117376999Y-99616944D01*
X117552939Y-99706591D01*
X117666872Y-99743610D01*
X117740736Y-99767610D01*
X117935764Y-99798500D01*
X117935769Y-99798500D01*
X118133236Y-99798500D01*
X118328263Y-99767610D01*
X118516061Y-99706591D01*
X118692001Y-99616944D01*
X118815966Y-99526879D01*
X118851746Y-99500884D01*
X118851748Y-99500881D01*
X118851752Y-99500879D01*
X118991379Y-99361252D01*
X118991381Y-99361248D01*
X118991384Y-99361246D01*
X119042279Y-99291192D01*
X119107444Y-99201501D01*
X119197091Y-99025561D01*
X119258110Y-98837763D01*
X119261911Y-98813763D01*
X119289000Y-98642736D01*
X119289000Y-96937263D01*
X130698500Y-96937263D01*
X130698500Y-98642736D01*
X130729389Y-98837763D01*
X130782610Y-99001558D01*
X130790409Y-99025561D01*
X130867829Y-99177504D01*
X130880058Y-99201504D01*
X130996115Y-99361246D01*
X131135753Y-99500884D01*
X131285234Y-99609486D01*
X131295499Y-99616944D01*
X131471439Y-99706591D01*
X131585372Y-99743610D01*
X131659236Y-99767610D01*
X131854264Y-99798500D01*
X131854269Y-99798500D01*
X132051736Y-99798500D01*
X132246763Y-99767610D01*
X132434561Y-99706591D01*
X132610501Y-99616944D01*
X132734466Y-99526879D01*
X132770246Y-99500884D01*
X132770248Y-99500881D01*
X132770252Y-99500879D01*
X132909879Y-99361252D01*
X132909881Y-99361248D01*
X132909884Y-99361246D01*
X132960779Y-99291192D01*
X133025944Y-99201501D01*
X133115591Y-99025561D01*
X133176610Y-98837763D01*
X133180411Y-98813763D01*
X133207500Y-98642736D01*
X133207500Y-96937263D01*
X133176610Y-96742236D01*
X133156270Y-96679637D01*
X133115591Y-96554439D01*
X133025944Y-96378499D01*
X133008504Y-96354495D01*
X132909884Y-96218753D01*
X132770246Y-96079115D01*
X132610504Y-95963058D01*
X132610503Y-95963057D01*
X132610501Y-95963056D01*
X132434561Y-95873409D01*
X132434558Y-95873408D01*
X132246763Y-95812389D01*
X132051736Y-95781500D01*
X132051731Y-95781500D01*
X131854269Y-95781500D01*
X131854264Y-95781500D01*
X131659236Y-95812389D01*
X131471441Y-95873408D01*
X131295495Y-95963058D01*
X131135753Y-96079115D01*
X130996115Y-96218753D01*
X130880058Y-96378495D01*
X130790408Y-96554441D01*
X130729389Y-96742236D01*
X130698500Y-96937263D01*
X119289000Y-96937263D01*
X119258110Y-96742236D01*
X119237770Y-96679637D01*
X119197091Y-96554439D01*
X119107444Y-96378499D01*
X119090004Y-96354495D01*
X118991384Y-96218753D01*
X118851746Y-96079115D01*
X118692004Y-95963058D01*
X118692003Y-95963057D01*
X118692001Y-95963056D01*
X118516061Y-95873409D01*
X118516058Y-95873408D01*
X118328263Y-95812389D01*
X118133236Y-95781500D01*
X118133231Y-95781500D01*
X117935769Y-95781500D01*
X117935764Y-95781500D01*
X117740736Y-95812389D01*
X117552941Y-95873408D01*
X117376995Y-95963058D01*
X117217253Y-96079115D01*
X117077615Y-96218753D01*
X116961558Y-96378495D01*
X116871908Y-96554441D01*
X116810889Y-96742236D01*
X116780000Y-96937263D01*
X105524000Y-96937263D01*
X105524000Y-96913263D01*
X105493110Y-96718236D01*
X105472770Y-96655637D01*
X105432091Y-96530439D01*
X105342444Y-96354499D01*
X105334986Y-96344234D01*
X105226384Y-96194753D01*
X105086746Y-96055115D01*
X104927004Y-95939058D01*
X104927003Y-95939057D01*
X104927001Y-95939056D01*
X104751061Y-95849409D01*
X104717145Y-95838389D01*
X104563263Y-95788389D01*
X104368236Y-95757500D01*
X104368231Y-95757500D01*
X104170769Y-95757500D01*
X104170764Y-95757500D01*
X103975736Y-95788389D01*
X103787941Y-95849408D01*
X103611995Y-95939058D01*
X103452253Y-96055115D01*
X103312615Y-96194753D01*
X103196558Y-96354495D01*
X103106908Y-96530441D01*
X103045889Y-96718236D01*
X103015000Y-96913263D01*
X91750580Y-96913263D01*
X91727610Y-96768236D01*
X91707270Y-96705637D01*
X91666591Y-96580439D01*
X91576944Y-96404499D01*
X91558051Y-96378495D01*
X91460884Y-96244753D01*
X91321246Y-96105115D01*
X91161504Y-95989058D01*
X91161503Y-95989057D01*
X91161501Y-95989056D01*
X90985561Y-95899409D01*
X90985558Y-95899408D01*
X90797763Y-95838389D01*
X90602736Y-95807500D01*
X90602731Y-95807500D01*
X90405269Y-95807500D01*
X90405264Y-95807500D01*
X90210236Y-95838389D01*
X90022441Y-95899408D01*
X89846495Y-95989058D01*
X89686753Y-96105115D01*
X89547115Y-96244753D01*
X89431058Y-96404495D01*
X89341408Y-96580441D01*
X89280389Y-96768236D01*
X89249500Y-96963263D01*
X79494500Y-96963263D01*
X79494500Y-90646153D01*
X94449500Y-90646153D01*
X94449500Y-90803846D01*
X94480261Y-90958489D01*
X94480264Y-90958501D01*
X94540602Y-91104172D01*
X94540609Y-91104185D01*
X94628210Y-91235288D01*
X94628213Y-91235292D01*
X94739707Y-91346786D01*
X94739711Y-91346789D01*
X94870814Y-91434390D01*
X94870827Y-91434397D01*
X95016498Y-91494735D01*
X95016503Y-91494737D01*
X95171153Y-91525499D01*
X95171156Y-91525500D01*
X95171158Y-91525500D01*
X95328844Y-91525500D01*
X95328845Y-91525499D01*
X95483497Y-91494737D01*
X95629179Y-91434394D01*
X95760289Y-91346789D01*
X95871789Y-91235289D01*
X95959394Y-91104179D01*
X96019737Y-90958497D01*
X96050500Y-90803842D01*
X96050500Y-90646158D01*
X96045825Y-90622653D01*
X116420500Y-90622653D01*
X116420500Y-90780346D01*
X116451261Y-90934989D01*
X116451264Y-90935001D01*
X116511602Y-91080672D01*
X116511609Y-91080685D01*
X116599210Y-91211788D01*
X116599213Y-91211792D01*
X116710707Y-91323286D01*
X116710711Y-91323289D01*
X116841814Y-91410890D01*
X116841827Y-91410897D01*
X116987498Y-91471235D01*
X116987503Y-91471237D01*
X117105635Y-91494735D01*
X117142153Y-91501999D01*
X117142156Y-91502000D01*
X117142158Y-91502000D01*
X117299844Y-91502000D01*
X117299845Y-91501999D01*
X117454497Y-91471237D01*
X117600179Y-91410894D01*
X117731289Y-91323289D01*
X117842789Y-91211789D01*
X117930394Y-91080679D01*
X117990737Y-90934997D01*
X118021500Y-90780342D01*
X118021500Y-90622658D01*
X118021500Y-90622655D01*
X118021499Y-90622653D01*
X119087500Y-90622653D01*
X119087500Y-90780346D01*
X119118261Y-90934989D01*
X119118264Y-90935001D01*
X119178602Y-91080672D01*
X119178609Y-91080685D01*
X119266210Y-91211788D01*
X119266213Y-91211792D01*
X119377707Y-91323286D01*
X119377711Y-91323289D01*
X119508814Y-91410890D01*
X119508827Y-91410897D01*
X119654498Y-91471235D01*
X119654503Y-91471237D01*
X119772635Y-91494735D01*
X119809153Y-91501999D01*
X119809156Y-91502000D01*
X119809158Y-91502000D01*
X119966844Y-91502000D01*
X119966845Y-91501999D01*
X120121497Y-91471237D01*
X120267179Y-91410894D01*
X120398289Y-91323289D01*
X120509789Y-91211789D01*
X120597394Y-91080679D01*
X120657737Y-90934997D01*
X120688500Y-90780342D01*
X120688500Y-90622658D01*
X120688500Y-90622655D01*
X120688499Y-90622653D01*
X141058500Y-90622653D01*
X141058500Y-90780346D01*
X141089261Y-90934989D01*
X141089264Y-90935001D01*
X141149602Y-91080672D01*
X141149609Y-91080685D01*
X141237210Y-91211788D01*
X141237213Y-91211792D01*
X141348707Y-91323286D01*
X141348711Y-91323289D01*
X141479814Y-91410890D01*
X141479827Y-91410897D01*
X141625498Y-91471235D01*
X141625503Y-91471237D01*
X141743635Y-91494735D01*
X141780153Y-91501999D01*
X141780156Y-91502000D01*
X141780158Y-91502000D01*
X141937844Y-91502000D01*
X141937845Y-91501999D01*
X142092497Y-91471237D01*
X142238179Y-91410894D01*
X142369289Y-91323289D01*
X142480789Y-91211789D01*
X142568394Y-91080679D01*
X142628737Y-90934997D01*
X142659500Y-90780342D01*
X142659500Y-90622658D01*
X142659500Y-90622655D01*
X142659499Y-90622653D01*
X142628738Y-90468010D01*
X142628737Y-90468003D01*
X142628735Y-90467998D01*
X142568397Y-90322327D01*
X142568390Y-90322314D01*
X142480789Y-90191211D01*
X142480786Y-90191207D01*
X142369292Y-90079713D01*
X142369288Y-90079710D01*
X142238185Y-89992109D01*
X142238172Y-89992102D01*
X142092501Y-89931764D01*
X142092489Y-89931761D01*
X141937845Y-89901000D01*
X141937842Y-89901000D01*
X141780158Y-89901000D01*
X141780155Y-89901000D01*
X141625510Y-89931761D01*
X141625498Y-89931764D01*
X141479827Y-89992102D01*
X141479814Y-89992109D01*
X141348711Y-90079710D01*
X141348707Y-90079713D01*
X141237213Y-90191207D01*
X141237210Y-90191211D01*
X141149609Y-90322314D01*
X141149602Y-90322327D01*
X141089264Y-90467998D01*
X141089261Y-90468010D01*
X141058500Y-90622653D01*
X120688499Y-90622653D01*
X120657738Y-90468010D01*
X120657737Y-90468003D01*
X120657735Y-90467998D01*
X120597397Y-90322327D01*
X120597390Y-90322314D01*
X120509789Y-90191211D01*
X120509786Y-90191207D01*
X120398292Y-90079713D01*
X120398288Y-90079710D01*
X120267185Y-89992109D01*
X120267172Y-89992102D01*
X120121501Y-89931764D01*
X120121489Y-89931761D01*
X119966845Y-89901000D01*
X119966842Y-89901000D01*
X119809158Y-89901000D01*
X119809155Y-89901000D01*
X119654510Y-89931761D01*
X119654498Y-89931764D01*
X119508827Y-89992102D01*
X119508814Y-89992109D01*
X119377711Y-90079710D01*
X119377707Y-90079713D01*
X119266213Y-90191207D01*
X119266210Y-90191211D01*
X119178609Y-90322314D01*
X119178602Y-90322327D01*
X119118264Y-90467998D01*
X119118261Y-90468010D01*
X119087500Y-90622653D01*
X118021499Y-90622653D01*
X117990738Y-90468010D01*
X117990737Y-90468003D01*
X117990735Y-90467998D01*
X117930397Y-90322327D01*
X117930390Y-90322314D01*
X117842789Y-90191211D01*
X117842786Y-90191207D01*
X117731292Y-90079713D01*
X117731288Y-90079710D01*
X117600185Y-89992109D01*
X117600172Y-89992102D01*
X117454501Y-89931764D01*
X117454489Y-89931761D01*
X117299845Y-89901000D01*
X117299842Y-89901000D01*
X117142158Y-89901000D01*
X117142155Y-89901000D01*
X116987510Y-89931761D01*
X116987498Y-89931764D01*
X116841827Y-89992102D01*
X116841814Y-89992109D01*
X116710711Y-90079710D01*
X116710707Y-90079713D01*
X116599213Y-90191207D01*
X116599210Y-90191211D01*
X116511609Y-90322314D01*
X116511602Y-90322327D01*
X116451264Y-90467998D01*
X116451261Y-90468010D01*
X116420500Y-90622653D01*
X96045825Y-90622653D01*
X96019737Y-90491503D01*
X96010001Y-90467998D01*
X95959397Y-90345827D01*
X95959390Y-90345814D01*
X95871789Y-90214711D01*
X95871786Y-90214707D01*
X95760292Y-90103213D01*
X95760288Y-90103210D01*
X95629185Y-90015609D01*
X95629172Y-90015602D01*
X95483501Y-89955264D01*
X95483489Y-89955261D01*
X95328845Y-89924500D01*
X95328842Y-89924500D01*
X95171158Y-89924500D01*
X95171155Y-89924500D01*
X95016510Y-89955261D01*
X95016498Y-89955264D01*
X94870827Y-90015602D01*
X94870814Y-90015609D01*
X94739711Y-90103210D01*
X94739707Y-90103213D01*
X94628213Y-90214707D01*
X94628210Y-90214711D01*
X94540609Y-90345814D01*
X94540602Y-90345827D01*
X94480264Y-90491498D01*
X94480261Y-90491510D01*
X94449500Y-90646153D01*
X79494500Y-90646153D01*
X79494500Y-89422153D01*
X98005500Y-89422153D01*
X98005500Y-89579846D01*
X98036261Y-89734489D01*
X98036264Y-89734501D01*
X98096602Y-89880172D01*
X98096609Y-89880185D01*
X98184210Y-90011288D01*
X98184213Y-90011292D01*
X98295707Y-90122786D01*
X98295711Y-90122789D01*
X98426814Y-90210390D01*
X98426827Y-90210397D01*
X98560427Y-90265735D01*
X98572503Y-90270737D01*
X98727153Y-90301499D01*
X98727156Y-90301500D01*
X98727158Y-90301500D01*
X98884844Y-90301500D01*
X98884845Y-90301499D01*
X99039497Y-90270737D01*
X99174757Y-90214711D01*
X99185172Y-90210397D01*
X99185172Y-90210396D01*
X99185179Y-90210394D01*
X99316289Y-90122789D01*
X99427789Y-90011289D01*
X99515394Y-89880179D01*
X99575737Y-89734497D01*
X99606500Y-89579842D01*
X99606500Y-89422158D01*
X99606500Y-89422154D01*
X99605505Y-89417153D01*
X102958500Y-89417153D01*
X102958500Y-89574846D01*
X102989261Y-89729489D01*
X102989264Y-89729501D01*
X103049602Y-89875172D01*
X103049609Y-89875185D01*
X103137210Y-90006288D01*
X103137213Y-90006292D01*
X103248707Y-90117786D01*
X103248711Y-90117789D01*
X103379814Y-90205390D01*
X103379827Y-90205397D01*
X103525498Y-90265735D01*
X103525503Y-90265737D01*
X103680153Y-90296499D01*
X103680156Y-90296500D01*
X103680158Y-90296500D01*
X103837844Y-90296500D01*
X103837845Y-90296499D01*
X103992497Y-90265737D01*
X104126108Y-90210394D01*
X104138172Y-90205397D01*
X104138172Y-90205396D01*
X104138179Y-90205394D01*
X104269289Y-90117789D01*
X104380789Y-90006289D01*
X104468394Y-89875179D01*
X104528737Y-89729497D01*
X104559500Y-89574842D01*
X104559500Y-89417158D01*
X104559500Y-89417155D01*
X104559499Y-89417153D01*
X107911500Y-89417153D01*
X107911500Y-89574846D01*
X107942261Y-89729489D01*
X107942264Y-89729501D01*
X108002602Y-89875172D01*
X108002609Y-89875185D01*
X108090210Y-90006288D01*
X108090213Y-90006292D01*
X108201707Y-90117786D01*
X108201711Y-90117789D01*
X108332814Y-90205390D01*
X108332827Y-90205397D01*
X108478498Y-90265735D01*
X108478503Y-90265737D01*
X108633153Y-90296499D01*
X108633156Y-90296500D01*
X108633158Y-90296500D01*
X108790844Y-90296500D01*
X108790845Y-90296499D01*
X108945497Y-90265737D01*
X109079108Y-90210394D01*
X109091172Y-90205397D01*
X109091172Y-90205396D01*
X109091179Y-90205394D01*
X109222289Y-90117789D01*
X109333789Y-90006289D01*
X109421394Y-89875179D01*
X109481737Y-89729497D01*
X109512500Y-89574842D01*
X109512500Y-89417158D01*
X109512500Y-89417155D01*
X109512499Y-89417153D01*
X112864500Y-89417153D01*
X112864500Y-89574846D01*
X112895261Y-89729489D01*
X112895264Y-89729501D01*
X112955602Y-89875172D01*
X112955609Y-89875185D01*
X113043210Y-90006288D01*
X113043213Y-90006292D01*
X113154707Y-90117786D01*
X113154711Y-90117789D01*
X113285814Y-90205390D01*
X113285827Y-90205397D01*
X113431498Y-90265735D01*
X113431503Y-90265737D01*
X113586153Y-90296499D01*
X113586156Y-90296500D01*
X113586158Y-90296500D01*
X113743844Y-90296500D01*
X113743845Y-90296499D01*
X113898497Y-90265737D01*
X114032108Y-90210394D01*
X114044172Y-90205397D01*
X114044172Y-90205396D01*
X114044179Y-90205394D01*
X114175289Y-90117789D01*
X114286789Y-90006289D01*
X114374394Y-89875179D01*
X114434737Y-89729497D01*
X114465500Y-89574842D01*
X114465500Y-89417158D01*
X114465500Y-89417155D01*
X114465499Y-89417153D01*
X114435733Y-89267510D01*
X114434737Y-89262503D01*
X114431913Y-89255685D01*
X114374397Y-89116827D01*
X114374390Y-89116814D01*
X114286789Y-88985711D01*
X114286786Y-88985707D01*
X114175292Y-88874213D01*
X114175288Y-88874210D01*
X114044185Y-88786609D01*
X114044172Y-88786602D01*
X113898501Y-88726264D01*
X113898489Y-88726261D01*
X113743845Y-88695500D01*
X113743842Y-88695500D01*
X113586158Y-88695500D01*
X113586155Y-88695500D01*
X113431510Y-88726261D01*
X113431498Y-88726264D01*
X113285827Y-88786602D01*
X113285814Y-88786609D01*
X113154711Y-88874210D01*
X113154707Y-88874213D01*
X113043213Y-88985707D01*
X113043210Y-88985711D01*
X112955609Y-89116814D01*
X112955602Y-89116827D01*
X112895264Y-89262498D01*
X112895261Y-89262510D01*
X112864500Y-89417153D01*
X109512499Y-89417153D01*
X109482733Y-89267510D01*
X109481737Y-89262503D01*
X109478913Y-89255685D01*
X109421397Y-89116827D01*
X109421390Y-89116814D01*
X109333789Y-88985711D01*
X109333786Y-88985707D01*
X109222292Y-88874213D01*
X109222288Y-88874210D01*
X109091185Y-88786609D01*
X109091172Y-88786602D01*
X108945501Y-88726264D01*
X108945489Y-88726261D01*
X108790845Y-88695500D01*
X108790842Y-88695500D01*
X108633158Y-88695500D01*
X108633155Y-88695500D01*
X108478510Y-88726261D01*
X108478498Y-88726264D01*
X108332827Y-88786602D01*
X108332814Y-88786609D01*
X108201711Y-88874210D01*
X108201707Y-88874213D01*
X108090213Y-88985707D01*
X108090210Y-88985711D01*
X108002609Y-89116814D01*
X108002602Y-89116827D01*
X107942264Y-89262498D01*
X107942261Y-89262510D01*
X107911500Y-89417153D01*
X104559499Y-89417153D01*
X104529733Y-89267510D01*
X104528737Y-89262503D01*
X104525913Y-89255685D01*
X104468397Y-89116827D01*
X104468390Y-89116814D01*
X104380789Y-88985711D01*
X104380786Y-88985707D01*
X104269292Y-88874213D01*
X104269288Y-88874210D01*
X104138185Y-88786609D01*
X104138172Y-88786602D01*
X103992501Y-88726264D01*
X103992489Y-88726261D01*
X103837845Y-88695500D01*
X103837842Y-88695500D01*
X103680158Y-88695500D01*
X103680155Y-88695500D01*
X103525510Y-88726261D01*
X103525498Y-88726264D01*
X103379827Y-88786602D01*
X103379814Y-88786609D01*
X103248711Y-88874210D01*
X103248707Y-88874213D01*
X103137213Y-88985707D01*
X103137210Y-88985711D01*
X103049609Y-89116814D01*
X103049602Y-89116827D01*
X102989264Y-89262498D01*
X102989261Y-89262510D01*
X102958500Y-89417153D01*
X99605505Y-89417153D01*
X99575738Y-89267510D01*
X99575737Y-89267503D01*
X99570839Y-89255679D01*
X99515397Y-89121827D01*
X99515390Y-89121814D01*
X99427789Y-88990711D01*
X99427786Y-88990707D01*
X99316292Y-88879213D01*
X99316288Y-88879210D01*
X99185185Y-88791609D01*
X99185172Y-88791602D01*
X99039501Y-88731264D01*
X99039489Y-88731261D01*
X98884845Y-88700500D01*
X98884842Y-88700500D01*
X98727158Y-88700500D01*
X98727155Y-88700500D01*
X98572510Y-88731261D01*
X98572498Y-88731264D01*
X98426827Y-88791602D01*
X98426814Y-88791609D01*
X98295711Y-88879210D01*
X98295707Y-88879213D01*
X98184213Y-88990707D01*
X98184210Y-88990711D01*
X98096609Y-89121814D01*
X98096602Y-89121827D01*
X98036264Y-89267498D01*
X98036261Y-89267510D01*
X98005500Y-89422153D01*
X79494500Y-89422153D01*
X79494500Y-87217153D01*
X94449500Y-87217153D01*
X94449500Y-87374846D01*
X94480261Y-87529489D01*
X94480264Y-87529501D01*
X94540602Y-87675172D01*
X94540609Y-87675185D01*
X94628210Y-87806288D01*
X94628213Y-87806292D01*
X94739707Y-87917786D01*
X94739711Y-87917789D01*
X94870814Y-88005390D01*
X94870827Y-88005397D01*
X95016498Y-88065735D01*
X95016503Y-88065737D01*
X95160279Y-88094336D01*
X95171153Y-88096499D01*
X95171156Y-88096500D01*
X95171158Y-88096500D01*
X95328844Y-88096500D01*
X95328845Y-88096499D01*
X95483497Y-88065737D01*
X95629179Y-88005394D01*
X95760289Y-87917789D01*
X95871789Y-87806289D01*
X95959394Y-87675179D01*
X96019737Y-87529497D01*
X96050500Y-87374842D01*
X96050500Y-87217158D01*
X96045825Y-87193653D01*
X116420500Y-87193653D01*
X116420500Y-87351346D01*
X116451261Y-87505989D01*
X116451264Y-87506001D01*
X116511602Y-87651672D01*
X116511609Y-87651685D01*
X116599210Y-87782788D01*
X116599213Y-87782792D01*
X116710707Y-87894286D01*
X116710711Y-87894289D01*
X116841814Y-87981890D01*
X116841827Y-87981897D01*
X116945915Y-88025011D01*
X116987503Y-88042237D01*
X117105635Y-88065735D01*
X117142153Y-88072999D01*
X117142156Y-88073000D01*
X117142158Y-88073000D01*
X117299844Y-88073000D01*
X117299845Y-88072999D01*
X117454497Y-88042237D01*
X117600179Y-87981894D01*
X117731289Y-87894289D01*
X117842789Y-87782789D01*
X117930394Y-87651679D01*
X117990737Y-87505997D01*
X118021500Y-87351342D01*
X118021500Y-87193658D01*
X118021500Y-87193655D01*
X118021499Y-87193653D01*
X119087500Y-87193653D01*
X119087500Y-87351346D01*
X119118261Y-87505989D01*
X119118264Y-87506001D01*
X119178602Y-87651672D01*
X119178609Y-87651685D01*
X119266210Y-87782788D01*
X119266213Y-87782792D01*
X119377707Y-87894286D01*
X119377711Y-87894289D01*
X119508814Y-87981890D01*
X119508827Y-87981897D01*
X119612915Y-88025011D01*
X119654503Y-88042237D01*
X119772635Y-88065735D01*
X119809153Y-88072999D01*
X119809156Y-88073000D01*
X119809158Y-88073000D01*
X119966844Y-88073000D01*
X119966845Y-88072999D01*
X120121497Y-88042237D01*
X120267179Y-87981894D01*
X120398289Y-87894289D01*
X120509789Y-87782789D01*
X120597394Y-87651679D01*
X120657737Y-87505997D01*
X120688500Y-87351342D01*
X120688500Y-87193658D01*
X120688500Y-87193655D01*
X120688499Y-87193653D01*
X141058500Y-87193653D01*
X141058500Y-87351346D01*
X141089261Y-87505989D01*
X141089264Y-87506001D01*
X141149602Y-87651672D01*
X141149609Y-87651685D01*
X141237210Y-87782788D01*
X141237213Y-87782792D01*
X141348707Y-87894286D01*
X141348711Y-87894289D01*
X141479814Y-87981890D01*
X141479827Y-87981897D01*
X141583915Y-88025011D01*
X141625503Y-88042237D01*
X141743635Y-88065735D01*
X141780153Y-88072999D01*
X141780156Y-88073000D01*
X141780158Y-88073000D01*
X141937844Y-88073000D01*
X141937845Y-88072999D01*
X142092497Y-88042237D01*
X142238179Y-87981894D01*
X142369289Y-87894289D01*
X142480789Y-87782789D01*
X142568394Y-87651679D01*
X142628737Y-87505997D01*
X142659500Y-87351342D01*
X142659500Y-87193658D01*
X142659500Y-87193655D01*
X142659499Y-87193653D01*
X142628738Y-87039010D01*
X142628737Y-87039003D01*
X142628735Y-87038998D01*
X142568397Y-86893327D01*
X142568390Y-86893314D01*
X142480789Y-86762211D01*
X142480786Y-86762207D01*
X142369292Y-86650713D01*
X142369288Y-86650710D01*
X142238185Y-86563109D01*
X142238172Y-86563102D01*
X142092501Y-86502764D01*
X142092489Y-86502761D01*
X141937845Y-86472000D01*
X141937842Y-86472000D01*
X141780158Y-86472000D01*
X141780155Y-86472000D01*
X141625510Y-86502761D01*
X141625498Y-86502764D01*
X141479827Y-86563102D01*
X141479814Y-86563109D01*
X141348711Y-86650710D01*
X141348707Y-86650713D01*
X141237213Y-86762207D01*
X141237210Y-86762211D01*
X141149609Y-86893314D01*
X141149602Y-86893327D01*
X141089264Y-87038998D01*
X141089261Y-87039010D01*
X141058500Y-87193653D01*
X120688499Y-87193653D01*
X120657738Y-87039010D01*
X120657737Y-87039003D01*
X120657735Y-87038998D01*
X120597397Y-86893327D01*
X120597390Y-86893314D01*
X120509789Y-86762211D01*
X120509786Y-86762207D01*
X120398292Y-86650713D01*
X120398288Y-86650710D01*
X120267185Y-86563109D01*
X120267172Y-86563102D01*
X120121501Y-86502764D01*
X120121489Y-86502761D01*
X119966845Y-86472000D01*
X119966842Y-86472000D01*
X119809158Y-86472000D01*
X119809155Y-86472000D01*
X119654510Y-86502761D01*
X119654498Y-86502764D01*
X119508827Y-86563102D01*
X119508814Y-86563109D01*
X119377711Y-86650710D01*
X119377707Y-86650713D01*
X119266213Y-86762207D01*
X119266210Y-86762211D01*
X119178609Y-86893314D01*
X119178602Y-86893327D01*
X119118264Y-87038998D01*
X119118261Y-87039010D01*
X119087500Y-87193653D01*
X118021499Y-87193653D01*
X117990738Y-87039010D01*
X117990737Y-87039003D01*
X117990735Y-87038998D01*
X117930397Y-86893327D01*
X117930390Y-86893314D01*
X117842789Y-86762211D01*
X117842786Y-86762207D01*
X117731292Y-86650713D01*
X117731288Y-86650710D01*
X117600185Y-86563109D01*
X117600172Y-86563102D01*
X117454501Y-86502764D01*
X117454489Y-86502761D01*
X117299845Y-86472000D01*
X117299842Y-86472000D01*
X117142158Y-86472000D01*
X117142155Y-86472000D01*
X116987510Y-86502761D01*
X116987498Y-86502764D01*
X116841827Y-86563102D01*
X116841814Y-86563109D01*
X116710711Y-86650710D01*
X116710707Y-86650713D01*
X116599213Y-86762207D01*
X116599210Y-86762211D01*
X116511609Y-86893314D01*
X116511602Y-86893327D01*
X116451264Y-87038998D01*
X116451261Y-87039010D01*
X116420500Y-87193653D01*
X96045825Y-87193653D01*
X96019737Y-87062503D01*
X96010001Y-87038998D01*
X95959397Y-86916827D01*
X95959390Y-86916814D01*
X95871789Y-86785711D01*
X95871786Y-86785707D01*
X95760292Y-86674213D01*
X95760288Y-86674210D01*
X95629185Y-86586609D01*
X95629172Y-86586602D01*
X95483501Y-86526264D01*
X95483489Y-86526261D01*
X95328845Y-86495500D01*
X95328842Y-86495500D01*
X95171158Y-86495500D01*
X95171155Y-86495500D01*
X95016510Y-86526261D01*
X95016498Y-86526264D01*
X94870827Y-86586602D01*
X94870814Y-86586609D01*
X94739711Y-86674210D01*
X94739707Y-86674213D01*
X94628213Y-86785707D01*
X94628210Y-86785711D01*
X94540609Y-86916814D01*
X94540602Y-86916827D01*
X94480264Y-87062498D01*
X94480261Y-87062510D01*
X94449500Y-87217153D01*
X79494500Y-87217153D01*
X79494500Y-84841763D01*
X82496500Y-84841763D01*
X82496500Y-85039236D01*
X82527389Y-85234263D01*
X82571056Y-85368655D01*
X82588409Y-85422061D01*
X82641546Y-85526346D01*
X82678058Y-85598004D01*
X82794115Y-85757746D01*
X82933753Y-85897384D01*
X83083234Y-86005986D01*
X83093499Y-86013444D01*
X83269439Y-86103091D01*
X83394637Y-86143770D01*
X83457236Y-86164110D01*
X83652264Y-86195000D01*
X83652269Y-86195000D01*
X85357736Y-86195000D01*
X85552763Y-86164110D01*
X85574962Y-86156897D01*
X85740561Y-86103091D01*
X85916501Y-86013444D01*
X86006192Y-85948279D01*
X86076246Y-85897384D01*
X86076248Y-85897381D01*
X86076252Y-85897379D01*
X86215879Y-85757752D01*
X86215881Y-85757748D01*
X86215884Y-85757746D01*
X86271650Y-85680989D01*
X86331944Y-85598001D01*
X86421591Y-85422061D01*
X86438944Y-85368653D01*
X143090500Y-85368653D01*
X143090500Y-85526346D01*
X143121261Y-85680989D01*
X143121264Y-85681001D01*
X143181602Y-85826672D01*
X143181609Y-85826685D01*
X143269210Y-85957788D01*
X143269213Y-85957792D01*
X143380707Y-86069286D01*
X143380711Y-86069289D01*
X143511814Y-86156890D01*
X143511827Y-86156897D01*
X143657498Y-86217235D01*
X143657503Y-86217237D01*
X143657507Y-86217237D01*
X143657508Y-86217238D01*
X143763808Y-86238383D01*
X143825718Y-86270768D01*
X143860293Y-86331484D01*
X143856553Y-86401253D01*
X143815686Y-86457925D01*
X143763808Y-86481617D01*
X143657508Y-86502761D01*
X143657498Y-86502764D01*
X143511827Y-86563102D01*
X143511814Y-86563109D01*
X143380711Y-86650710D01*
X143380707Y-86650713D01*
X143269213Y-86762207D01*
X143269210Y-86762211D01*
X143181609Y-86893314D01*
X143181602Y-86893327D01*
X143121264Y-87038998D01*
X143121261Y-87039010D01*
X143090500Y-87193653D01*
X143090500Y-87351346D01*
X143121261Y-87505989D01*
X143121264Y-87506001D01*
X143181602Y-87651672D01*
X143181609Y-87651685D01*
X143269210Y-87782788D01*
X143269213Y-87782792D01*
X143380707Y-87894286D01*
X143380711Y-87894289D01*
X143496111Y-87971398D01*
X143540916Y-88025011D01*
X143549623Y-88094336D01*
X143519468Y-88157363D01*
X143496111Y-88177602D01*
X143380711Y-88254710D01*
X143380707Y-88254713D01*
X143269213Y-88366207D01*
X143269210Y-88366211D01*
X143181609Y-88497314D01*
X143181602Y-88497327D01*
X143121264Y-88642998D01*
X143121261Y-88643010D01*
X143090500Y-88797653D01*
X143090500Y-88955346D01*
X143121261Y-89109989D01*
X143121264Y-89110001D01*
X143181602Y-89255672D01*
X143181609Y-89255685D01*
X143269210Y-89386788D01*
X143269213Y-89386792D01*
X143380707Y-89498286D01*
X143380711Y-89498289D01*
X143511814Y-89585890D01*
X143511827Y-89585897D01*
X143657498Y-89646235D01*
X143657503Y-89646237D01*
X143812153Y-89676999D01*
X143812156Y-89677000D01*
X143812158Y-89677000D01*
X143969844Y-89677000D01*
X143969845Y-89676999D01*
X144124497Y-89646237D01*
X144270179Y-89585894D01*
X144401289Y-89498289D01*
X144512789Y-89386789D01*
X144600394Y-89255679D01*
X144660737Y-89109997D01*
X144691500Y-88955342D01*
X144691500Y-88797658D01*
X144691500Y-88797655D01*
X144691499Y-88797653D01*
X144677299Y-88726264D01*
X144660737Y-88643003D01*
X144660735Y-88642998D01*
X144600397Y-88497327D01*
X144600390Y-88497314D01*
X144512789Y-88366211D01*
X144512786Y-88366207D01*
X144401292Y-88254713D01*
X144401288Y-88254710D01*
X144285888Y-88177602D01*
X144241083Y-88123990D01*
X144232376Y-88054665D01*
X144262530Y-87991637D01*
X144285888Y-87971398D01*
X144331077Y-87941202D01*
X144401289Y-87894289D01*
X144512789Y-87782789D01*
X144600394Y-87651679D01*
X144660737Y-87505997D01*
X144691500Y-87351342D01*
X144691500Y-87193658D01*
X144691500Y-87193655D01*
X144691499Y-87193653D01*
X144660738Y-87039010D01*
X144660737Y-87039003D01*
X144660735Y-87038998D01*
X144600397Y-86893327D01*
X144600390Y-86893314D01*
X144512789Y-86762211D01*
X144512786Y-86762207D01*
X144401292Y-86650713D01*
X144401288Y-86650710D01*
X144270185Y-86563109D01*
X144270172Y-86563102D01*
X144124501Y-86502764D01*
X144124489Y-86502761D01*
X144018192Y-86481617D01*
X143956281Y-86449232D01*
X143921707Y-86388516D01*
X143925446Y-86318747D01*
X143966313Y-86262075D01*
X144018192Y-86238383D01*
X144065705Y-86228931D01*
X144124497Y-86217237D01*
X144270179Y-86156894D01*
X144401289Y-86069289D01*
X144512789Y-85957789D01*
X144600394Y-85826679D01*
X144660737Y-85680997D01*
X144691500Y-85526342D01*
X144691500Y-85368658D01*
X144691500Y-85368655D01*
X144691499Y-85368653D01*
X144664767Y-85234263D01*
X144660737Y-85214003D01*
X144660735Y-85213998D01*
X144600397Y-85068327D01*
X144600390Y-85068314D01*
X144512789Y-84937211D01*
X144512786Y-84937207D01*
X144401292Y-84825713D01*
X144401288Y-84825710D01*
X144270185Y-84738109D01*
X144270172Y-84738102D01*
X144124501Y-84677764D01*
X144124489Y-84677761D01*
X143969845Y-84647000D01*
X143969842Y-84647000D01*
X143812158Y-84647000D01*
X143812155Y-84647000D01*
X143657510Y-84677761D01*
X143657498Y-84677764D01*
X143511827Y-84738102D01*
X143511814Y-84738109D01*
X143380711Y-84825710D01*
X143380707Y-84825713D01*
X143269213Y-84937207D01*
X143269210Y-84937211D01*
X143181609Y-85068314D01*
X143181602Y-85068327D01*
X143121264Y-85213998D01*
X143121261Y-85214010D01*
X143090500Y-85368653D01*
X86438944Y-85368653D01*
X86482610Y-85234263D01*
X86508894Y-85068314D01*
X86513500Y-85039236D01*
X86513500Y-84841763D01*
X86482610Y-84646736D01*
X86462270Y-84584137D01*
X86421591Y-84458939D01*
X86331944Y-84282999D01*
X86324486Y-84272734D01*
X86215884Y-84123253D01*
X86076246Y-83983615D01*
X85916504Y-83867558D01*
X85916503Y-83867557D01*
X85916501Y-83867556D01*
X85740561Y-83777909D01*
X85740558Y-83777908D01*
X85552763Y-83716889D01*
X85357736Y-83686000D01*
X85357731Y-83686000D01*
X83652269Y-83686000D01*
X83652264Y-83686000D01*
X83457236Y-83716889D01*
X83269441Y-83777908D01*
X83093495Y-83867558D01*
X82933753Y-83983615D01*
X82794115Y-84123253D01*
X82678058Y-84282995D01*
X82588408Y-84458941D01*
X82527389Y-84646736D01*
X82496500Y-84841763D01*
X79494500Y-84841763D01*
X79494500Y-79587802D01*
X79751000Y-79587802D01*
X79751000Y-80190500D01*
X80505000Y-80190500D01*
X80505000Y-80690500D01*
X79751000Y-80690500D01*
X79751000Y-81293197D01*
X79781876Y-81488146D01*
X79842873Y-81675873D01*
X79932485Y-81851742D01*
X80048496Y-82011419D01*
X80048500Y-82011424D01*
X80188075Y-82150999D01*
X80188080Y-82151003D01*
X80347757Y-82267014D01*
X80523626Y-82356626D01*
X80711355Y-82417623D01*
X80754999Y-82424534D01*
X80755000Y-82424534D01*
X80755000Y-81373512D01*
X80812007Y-81406425D01*
X80939174Y-81440500D01*
X81070826Y-81440500D01*
X81197993Y-81406425D01*
X81255000Y-81373512D01*
X81255000Y-82424534D01*
X81298644Y-82417623D01*
X81486373Y-82356626D01*
X81662242Y-82267014D01*
X81821919Y-82151003D01*
X81821924Y-82150999D01*
X81961499Y-82011424D01*
X81961503Y-82011419D01*
X82077514Y-81851742D01*
X82167126Y-81675873D01*
X82209627Y-81545069D01*
X107401920Y-81545069D01*
X107401920Y-81702762D01*
X107432681Y-81857405D01*
X107432684Y-81857417D01*
X107493022Y-82003088D01*
X107493029Y-82003101D01*
X107580630Y-82134204D01*
X107580633Y-82134208D01*
X107692127Y-82245702D01*
X107692131Y-82245705D01*
X107823234Y-82333306D01*
X107823247Y-82333313D01*
X107938216Y-82380934D01*
X107968923Y-82393653D01*
X108089428Y-82417623D01*
X108123573Y-82424415D01*
X108123576Y-82424416D01*
X108200597Y-82424416D01*
X108267636Y-82444101D01*
X108313391Y-82496905D01*
X108322215Y-82524227D01*
X108323263Y-82529496D01*
X108323264Y-82529501D01*
X108383602Y-82675172D01*
X108383609Y-82675185D01*
X108471210Y-82806288D01*
X108471213Y-82806292D01*
X108582707Y-82917786D01*
X108582711Y-82917789D01*
X108713814Y-83005390D01*
X108713827Y-83005397D01*
X108859498Y-83065735D01*
X108859503Y-83065737D01*
X109014153Y-83096499D01*
X109014156Y-83096500D01*
X109124147Y-83096500D01*
X109191186Y-83116185D01*
X109236941Y-83168989D01*
X109246617Y-83227066D01*
X109247500Y-83227066D01*
X109247500Y-83232365D01*
X109247549Y-83232660D01*
X109247500Y-83233157D01*
X109247500Y-83390846D01*
X109278261Y-83545489D01*
X109278264Y-83545501D01*
X109338602Y-83691172D01*
X109338609Y-83691185D01*
X109426210Y-83822288D01*
X109426213Y-83822292D01*
X109537707Y-83933786D01*
X109537711Y-83933789D01*
X109668814Y-84021390D01*
X109668827Y-84021397D01*
X109814498Y-84081735D01*
X109814503Y-84081737D01*
X109969153Y-84112499D01*
X109969156Y-84112500D01*
X109969158Y-84112500D01*
X110126844Y-84112500D01*
X110126845Y-84112499D01*
X110281497Y-84081737D01*
X110427179Y-84021394D01*
X110558289Y-83933789D01*
X110669789Y-83822289D01*
X110757394Y-83691179D01*
X110817737Y-83545497D01*
X110848500Y-83390842D01*
X110848500Y-83233158D01*
X110848500Y-83233157D01*
X110848500Y-83233155D01*
X110848499Y-83233153D01*
X133885500Y-83233153D01*
X133885500Y-83390846D01*
X133916261Y-83545489D01*
X133916264Y-83545501D01*
X133976602Y-83691172D01*
X133976609Y-83691185D01*
X134064210Y-83822288D01*
X134064213Y-83822292D01*
X134175707Y-83933786D01*
X134175711Y-83933789D01*
X134306814Y-84021390D01*
X134306827Y-84021397D01*
X134452498Y-84081735D01*
X134452503Y-84081737D01*
X134607153Y-84112499D01*
X134607156Y-84112500D01*
X134607158Y-84112500D01*
X134764844Y-84112500D01*
X134764845Y-84112499D01*
X134919497Y-84081737D01*
X135065179Y-84021394D01*
X135196289Y-83933789D01*
X135307789Y-83822289D01*
X135395394Y-83691179D01*
X135455737Y-83545497D01*
X135486500Y-83390842D01*
X135486500Y-83233158D01*
X135486500Y-83233157D01*
X135486500Y-83233155D01*
X135486499Y-83233153D01*
X135459317Y-83096500D01*
X135455737Y-83078503D01*
X135425456Y-83005397D01*
X135395397Y-82932827D01*
X135395390Y-82932814D01*
X135307789Y-82801711D01*
X135307786Y-82801707D01*
X135196292Y-82690213D01*
X135196288Y-82690210D01*
X135065185Y-82602609D01*
X135065172Y-82602602D01*
X134919501Y-82542264D01*
X134919489Y-82542261D01*
X134764845Y-82511500D01*
X134764842Y-82511500D01*
X134607158Y-82511500D01*
X134607155Y-82511500D01*
X134452510Y-82542261D01*
X134452498Y-82542264D01*
X134306827Y-82602602D01*
X134306814Y-82602609D01*
X134175711Y-82690210D01*
X134175707Y-82690213D01*
X134064213Y-82801707D01*
X134064210Y-82801711D01*
X133976609Y-82932814D01*
X133976602Y-82932827D01*
X133916264Y-83078498D01*
X133916261Y-83078510D01*
X133885500Y-83233153D01*
X110848499Y-83233153D01*
X110821317Y-83096500D01*
X110817737Y-83078503D01*
X110787456Y-83005397D01*
X110757397Y-82932827D01*
X110757390Y-82932814D01*
X110669789Y-82801711D01*
X110669786Y-82801707D01*
X110558292Y-82690213D01*
X110558288Y-82690210D01*
X110427185Y-82602609D01*
X110427172Y-82602602D01*
X110281501Y-82542264D01*
X110281489Y-82542261D01*
X110126845Y-82511500D01*
X110126842Y-82511500D01*
X110016853Y-82511500D01*
X109949814Y-82491815D01*
X109904059Y-82439011D01*
X109894383Y-82380934D01*
X109893500Y-82380934D01*
X109893500Y-82375634D01*
X109893451Y-82375340D01*
X109893500Y-82374842D01*
X109893500Y-82217155D01*
X109893499Y-82217153D01*
X109877000Y-82134208D01*
X109862737Y-82062503D01*
X109841580Y-82011424D01*
X109802397Y-81916827D01*
X109802390Y-81916814D01*
X109714789Y-81785711D01*
X109714786Y-81785707D01*
X109603292Y-81674213D01*
X109603288Y-81674210D01*
X109472185Y-81586609D01*
X109472172Y-81586602D01*
X109326501Y-81526264D01*
X109326489Y-81526261D01*
X109171845Y-81495500D01*
X109171842Y-81495500D01*
X109094823Y-81495500D01*
X109027784Y-81475815D01*
X108982029Y-81423011D01*
X108973205Y-81395689D01*
X108972157Y-81390419D01*
X108931887Y-81293197D01*
X108911817Y-81244743D01*
X108911810Y-81244730D01*
X108824209Y-81113627D01*
X108824206Y-81113623D01*
X108712712Y-81002129D01*
X108712708Y-81002126D01*
X108581605Y-80914525D01*
X108581592Y-80914518D01*
X108435921Y-80854180D01*
X108435909Y-80854177D01*
X108281265Y-80823416D01*
X108281262Y-80823416D01*
X108123578Y-80823416D01*
X108123575Y-80823416D01*
X107968930Y-80854177D01*
X107968918Y-80854180D01*
X107823247Y-80914518D01*
X107823234Y-80914525D01*
X107692131Y-81002126D01*
X107692127Y-81002129D01*
X107580633Y-81113623D01*
X107580630Y-81113627D01*
X107493029Y-81244730D01*
X107493022Y-81244743D01*
X107432684Y-81390414D01*
X107432681Y-81390426D01*
X107401920Y-81545069D01*
X82209627Y-81545069D01*
X82224056Y-81500663D01*
X82224057Y-81500661D01*
X82228121Y-81488153D01*
X82228122Y-81488147D01*
X82259000Y-81293197D01*
X82259000Y-80690500D01*
X81505000Y-80690500D01*
X81505000Y-80190500D01*
X82259000Y-80190500D01*
X82259000Y-79587802D01*
X82228123Y-79392853D01*
X82167126Y-79205126D01*
X82077514Y-79029257D01*
X81961503Y-78869580D01*
X81961499Y-78869575D01*
X81821924Y-78730000D01*
X81821919Y-78729996D01*
X81662242Y-78613985D01*
X81486371Y-78524373D01*
X81298642Y-78463376D01*
X81255000Y-78456463D01*
X81255000Y-79507488D01*
X81197993Y-79474575D01*
X81070826Y-79440500D01*
X80939174Y-79440500D01*
X80812007Y-79474575D01*
X80755000Y-79507488D01*
X80755000Y-78456463D01*
X80711357Y-78463376D01*
X80711356Y-78463376D01*
X80523628Y-78524373D01*
X80347757Y-78613985D01*
X80188080Y-78729996D01*
X80188075Y-78730000D01*
X80048500Y-78869575D01*
X80048496Y-78869580D01*
X79932485Y-79029257D01*
X79842873Y-79205126D01*
X79781876Y-79392853D01*
X79751000Y-79587802D01*
X79494500Y-79587802D01*
X79494500Y-78280153D01*
X106996500Y-78280153D01*
X106996500Y-78437846D01*
X107027261Y-78592489D01*
X107027264Y-78592501D01*
X107087602Y-78738172D01*
X107087609Y-78738185D01*
X107175210Y-78869288D01*
X107175213Y-78869292D01*
X107286707Y-78980786D01*
X107286711Y-78980789D01*
X107417814Y-79068390D01*
X107417827Y-79068397D01*
X107499033Y-79102033D01*
X107563503Y-79128737D01*
X107718153Y-79159499D01*
X107718156Y-79159500D01*
X107718158Y-79159500D01*
X107875844Y-79159500D01*
X107875845Y-79159499D01*
X108030497Y-79128737D01*
X108176179Y-79068394D01*
X108307289Y-78980789D01*
X108418789Y-78869289D01*
X108506394Y-78738179D01*
X108509784Y-78729996D01*
X108558996Y-78611185D01*
X108566737Y-78592497D01*
X108597500Y-78437842D01*
X108597500Y-78280158D01*
X108597500Y-78280155D01*
X108597499Y-78280153D01*
X108575839Y-78171257D01*
X108572238Y-78153153D01*
X133184500Y-78153153D01*
X133184500Y-78310846D01*
X133215261Y-78465489D01*
X133215264Y-78465501D01*
X133275602Y-78611172D01*
X133275609Y-78611185D01*
X133363210Y-78742288D01*
X133363213Y-78742292D01*
X133474707Y-78853786D01*
X133474711Y-78853789D01*
X133605814Y-78941390D01*
X133605827Y-78941397D01*
X133751498Y-79001735D01*
X133751503Y-79001737D01*
X133817606Y-79014885D01*
X133887947Y-79028878D01*
X133894489Y-79032300D01*
X133901875Y-79032499D01*
X133925036Y-79048279D01*
X133949858Y-79061263D01*
X133954939Y-79068651D01*
X133959617Y-79071839D01*
X133976475Y-79099970D01*
X133977894Y-79102033D01*
X133978107Y-79102536D01*
X134037606Y-79246179D01*
X134041698Y-79252303D01*
X134046256Y-79263038D01*
X134049004Y-79286641D01*
X134056099Y-79309321D01*
X134052971Y-79320709D01*
X134054337Y-79332438D01*
X134043888Y-79353779D01*
X134039219Y-79370779D01*
X134040476Y-79371451D01*
X134037606Y-79376819D01*
X133978317Y-79519957D01*
X133934476Y-79574360D01*
X133887948Y-79594121D01*
X133751508Y-79621261D01*
X133751498Y-79621264D01*
X133605827Y-79681602D01*
X133605814Y-79681609D01*
X133474711Y-79769210D01*
X133474707Y-79769213D01*
X133363213Y-79880707D01*
X133363210Y-79880711D01*
X133275609Y-80011814D01*
X133275602Y-80011827D01*
X133215264Y-80157498D01*
X133215261Y-80157510D01*
X133184500Y-80312153D01*
X133184500Y-80469846D01*
X133215261Y-80624489D01*
X133215264Y-80624501D01*
X133275602Y-80770172D01*
X133275609Y-80770185D01*
X133363210Y-80901288D01*
X133363213Y-80901292D01*
X133474707Y-81012786D01*
X133474711Y-81012789D01*
X133605814Y-81100390D01*
X133605827Y-81100397D01*
X133751498Y-81160735D01*
X133751503Y-81160737D01*
X133906153Y-81191499D01*
X133906156Y-81191500D01*
X133906158Y-81191500D01*
X134063844Y-81191500D01*
X134063845Y-81191499D01*
X134218497Y-81160737D01*
X134364179Y-81100394D01*
X134495289Y-81012789D01*
X134606789Y-80901289D01*
X134694394Y-80770179D01*
X134694395Y-80770176D01*
X134694397Y-80770173D01*
X134753682Y-80627043D01*
X134797522Y-80572639D01*
X134844052Y-80552878D01*
X134880887Y-80545550D01*
X134980497Y-80525737D01*
X135115431Y-80469846D01*
X135126172Y-80465397D01*
X135126172Y-80465396D01*
X135126179Y-80465394D01*
X135257289Y-80377789D01*
X135368789Y-80266289D01*
X135456394Y-80135179D01*
X135516737Y-79989497D01*
X135547500Y-79834842D01*
X135547500Y-79677158D01*
X135547500Y-79677155D01*
X135547499Y-79677153D01*
X135530983Y-79594121D01*
X135516737Y-79522503D01*
X135456394Y-79376821D01*
X135456393Y-79376819D01*
X135453525Y-79371454D01*
X135455629Y-79370329D01*
X135437901Y-79313717D01*
X135454771Y-79252212D01*
X135453525Y-79251546D01*
X135456390Y-79246184D01*
X135456394Y-79246179D01*
X135516737Y-79100497D01*
X135547500Y-78945842D01*
X135547500Y-78788158D01*
X135547500Y-78788155D01*
X135547499Y-78788153D01*
X135537557Y-78738172D01*
X135516737Y-78633503D01*
X135516735Y-78633498D01*
X135456397Y-78487827D01*
X135456390Y-78487814D01*
X135368789Y-78356711D01*
X135368786Y-78356707D01*
X135257292Y-78245213D01*
X135257288Y-78245210D01*
X135126185Y-78157609D01*
X135126172Y-78157602D01*
X134980501Y-78097264D01*
X134980491Y-78097261D01*
X134844051Y-78070121D01*
X134782140Y-78037736D01*
X134753682Y-77995956D01*
X134694397Y-77852827D01*
X134694390Y-77852814D01*
X134606789Y-77721711D01*
X134606786Y-77721707D01*
X134495292Y-77610213D01*
X134495288Y-77610210D01*
X134364185Y-77522609D01*
X134364172Y-77522602D01*
X134218501Y-77462264D01*
X134218489Y-77462261D01*
X134063845Y-77431500D01*
X134063842Y-77431500D01*
X133906158Y-77431500D01*
X133906155Y-77431500D01*
X133751510Y-77462261D01*
X133751498Y-77462264D01*
X133605827Y-77522602D01*
X133605814Y-77522609D01*
X133474711Y-77610210D01*
X133474707Y-77610213D01*
X133363213Y-77721707D01*
X133363210Y-77721711D01*
X133275609Y-77852814D01*
X133275602Y-77852827D01*
X133215264Y-77998498D01*
X133215261Y-77998510D01*
X133184500Y-78153153D01*
X108572238Y-78153153D01*
X108566738Y-78125508D01*
X108566737Y-78125507D01*
X108566737Y-78125503D01*
X108543797Y-78070121D01*
X108506397Y-77979827D01*
X108506390Y-77979814D01*
X108418789Y-77848711D01*
X108418786Y-77848707D01*
X108307292Y-77737213D01*
X108307288Y-77737210D01*
X108176185Y-77649609D01*
X108176172Y-77649602D01*
X108030501Y-77589264D01*
X108030489Y-77589261D01*
X107875845Y-77558500D01*
X107875842Y-77558500D01*
X107718158Y-77558500D01*
X107718155Y-77558500D01*
X107563510Y-77589261D01*
X107563498Y-77589264D01*
X107417827Y-77649602D01*
X107417814Y-77649609D01*
X107286711Y-77737210D01*
X107286707Y-77737213D01*
X107175213Y-77848707D01*
X107175210Y-77848711D01*
X107087609Y-77979814D01*
X107087602Y-77979827D01*
X107027264Y-78125498D01*
X107027261Y-78125510D01*
X106996500Y-78280153D01*
X79494500Y-78280153D01*
X79494500Y-76883153D01*
X108292500Y-76883153D01*
X108292500Y-77040846D01*
X108323261Y-77195489D01*
X108323264Y-77195501D01*
X108383602Y-77341172D01*
X108383609Y-77341185D01*
X108471210Y-77472288D01*
X108471213Y-77472292D01*
X108582707Y-77583786D01*
X108582711Y-77583789D01*
X108713814Y-77671390D01*
X108713827Y-77671397D01*
X108835288Y-77721707D01*
X108859503Y-77731737D01*
X109014153Y-77762499D01*
X109014156Y-77762500D01*
X109014158Y-77762500D01*
X109171844Y-77762500D01*
X109171845Y-77762499D01*
X109326497Y-77731737D01*
X109472179Y-77671394D01*
X109603289Y-77583789D01*
X109714789Y-77472289D01*
X109802394Y-77341179D01*
X109862737Y-77195497D01*
X109893500Y-77040842D01*
X109893500Y-76883158D01*
X109893500Y-76883155D01*
X109893499Y-76883153D01*
X109862738Y-76728510D01*
X109862737Y-76728503D01*
X109810790Y-76603091D01*
X109802397Y-76582827D01*
X109802390Y-76582814D01*
X109714789Y-76451711D01*
X109714786Y-76451707D01*
X109603292Y-76340213D01*
X109603288Y-76340210D01*
X109472185Y-76252609D01*
X109472172Y-76252602D01*
X109326501Y-76192264D01*
X109326489Y-76192261D01*
X109171845Y-76161500D01*
X109171842Y-76161500D01*
X109014158Y-76161500D01*
X109014155Y-76161500D01*
X108859510Y-76192261D01*
X108859498Y-76192264D01*
X108713827Y-76252602D01*
X108713814Y-76252609D01*
X108582711Y-76340210D01*
X108582707Y-76340213D01*
X108471213Y-76451707D01*
X108471210Y-76451711D01*
X108383609Y-76582814D01*
X108383602Y-76582827D01*
X108323264Y-76728498D01*
X108323261Y-76728510D01*
X108292500Y-76883153D01*
X79494500Y-76883153D01*
X79494500Y-75341763D01*
X87296500Y-75341763D01*
X87296500Y-75539236D01*
X87327389Y-75734263D01*
X87388408Y-75922058D01*
X87388409Y-75922061D01*
X87478056Y-76098001D01*
X87478058Y-76098004D01*
X87594115Y-76257746D01*
X87733753Y-76397384D01*
X87883234Y-76505986D01*
X87893499Y-76513444D01*
X88069439Y-76603091D01*
X88194637Y-76643770D01*
X88257236Y-76664110D01*
X88452264Y-76695000D01*
X88452269Y-76695000D01*
X90157736Y-76695000D01*
X90352763Y-76664110D01*
X90540561Y-76603091D01*
X90716501Y-76513444D01*
X90806192Y-76448279D01*
X90876246Y-76397384D01*
X90876248Y-76397381D01*
X90876252Y-76397379D01*
X91015879Y-76257752D01*
X91015881Y-76257748D01*
X91015884Y-76257746D01*
X91066779Y-76187692D01*
X91131944Y-76098001D01*
X91221591Y-75922061D01*
X91282610Y-75734263D01*
X91313500Y-75539236D01*
X91313500Y-75341763D01*
X91282610Y-75146736D01*
X91262270Y-75084137D01*
X91221591Y-74958939D01*
X91131944Y-74782999D01*
X91124486Y-74772734D01*
X91015884Y-74623253D01*
X90876246Y-74483615D01*
X90716504Y-74367558D01*
X90716503Y-74367557D01*
X90716501Y-74367556D01*
X90540561Y-74277909D01*
X90540558Y-74277908D01*
X90352763Y-74216889D01*
X90157736Y-74186000D01*
X90157731Y-74186000D01*
X88452269Y-74186000D01*
X88452264Y-74186000D01*
X88257236Y-74216889D01*
X88069441Y-74277908D01*
X87893495Y-74367558D01*
X87733753Y-74483615D01*
X87594115Y-74623253D01*
X87478058Y-74782995D01*
X87388408Y-74958941D01*
X87327389Y-75146736D01*
X87296500Y-75341763D01*
X79494500Y-75341763D01*
X79494500Y-72438153D01*
X94449500Y-72438153D01*
X94449500Y-72595846D01*
X94480261Y-72750489D01*
X94480264Y-72750501D01*
X94540602Y-72896172D01*
X94540609Y-72896185D01*
X94628210Y-73027288D01*
X94628213Y-73027292D01*
X94739707Y-73138786D01*
X94739711Y-73138789D01*
X94870814Y-73226390D01*
X94870827Y-73226397D01*
X95016498Y-73286735D01*
X95016503Y-73286737D01*
X95171153Y-73317499D01*
X95171156Y-73317500D01*
X95171158Y-73317500D01*
X95328844Y-73317500D01*
X95328845Y-73317499D01*
X95483497Y-73286737D01*
X95629179Y-73226394D01*
X95760289Y-73138789D01*
X95871789Y-73027289D01*
X95959394Y-72896179D01*
X96019737Y-72750497D01*
X96050500Y-72595842D01*
X96050500Y-72438158D01*
X96050500Y-72438155D01*
X96050499Y-72438153D01*
X116420500Y-72438153D01*
X116420500Y-72595846D01*
X116451261Y-72750489D01*
X116451264Y-72750501D01*
X116511602Y-72896172D01*
X116511609Y-72896185D01*
X116599210Y-73027288D01*
X116599213Y-73027292D01*
X116710707Y-73138786D01*
X116710711Y-73138789D01*
X116841814Y-73226390D01*
X116841827Y-73226397D01*
X116987498Y-73286735D01*
X116987503Y-73286737D01*
X117142153Y-73317499D01*
X117142156Y-73317500D01*
X117142158Y-73317500D01*
X117299844Y-73317500D01*
X117299845Y-73317499D01*
X117454497Y-73286737D01*
X117600179Y-73226394D01*
X117731289Y-73138789D01*
X117842789Y-73027289D01*
X117930394Y-72896179D01*
X117990737Y-72750497D01*
X118021500Y-72595842D01*
X118021500Y-72438158D01*
X118021500Y-72438155D01*
X118021499Y-72438153D01*
X119087500Y-72438153D01*
X119087500Y-72595846D01*
X119118261Y-72750489D01*
X119118264Y-72750501D01*
X119178602Y-72896172D01*
X119178609Y-72896185D01*
X119266210Y-73027288D01*
X119266213Y-73027292D01*
X119377707Y-73138786D01*
X119377711Y-73138789D01*
X119508814Y-73226390D01*
X119508827Y-73226397D01*
X119654498Y-73286735D01*
X119654503Y-73286737D01*
X119809153Y-73317499D01*
X119809156Y-73317500D01*
X119809158Y-73317500D01*
X119966844Y-73317500D01*
X119966845Y-73317499D01*
X120121497Y-73286737D01*
X120267179Y-73226394D01*
X120398289Y-73138789D01*
X120509789Y-73027289D01*
X120597394Y-72896179D01*
X120657737Y-72750497D01*
X120688500Y-72595842D01*
X120688500Y-72438158D01*
X120688500Y-72438155D01*
X120688499Y-72438153D01*
X141058500Y-72438153D01*
X141058500Y-72595846D01*
X141089261Y-72750489D01*
X141089264Y-72750501D01*
X141149602Y-72896172D01*
X141149609Y-72896185D01*
X141237210Y-73027288D01*
X141237213Y-73027292D01*
X141348707Y-73138786D01*
X141348711Y-73138789D01*
X141479814Y-73226390D01*
X141479827Y-73226397D01*
X141625498Y-73286735D01*
X141625503Y-73286737D01*
X141780153Y-73317499D01*
X141780156Y-73317500D01*
X141780158Y-73317500D01*
X141937844Y-73317500D01*
X141937845Y-73317499D01*
X142092497Y-73286737D01*
X142238179Y-73226394D01*
X142369289Y-73138789D01*
X142480789Y-73027289D01*
X142568394Y-72896179D01*
X142628737Y-72750497D01*
X142659500Y-72595842D01*
X142659500Y-72438158D01*
X142659500Y-72438155D01*
X142659499Y-72438153D01*
X142628737Y-72283503D01*
X142619001Y-72259998D01*
X142568397Y-72137827D01*
X142568390Y-72137814D01*
X142480789Y-72006711D01*
X142480786Y-72006707D01*
X142369292Y-71895213D01*
X142369288Y-71895210D01*
X142238185Y-71807609D01*
X142238172Y-71807602D01*
X142092501Y-71747264D01*
X142092489Y-71747261D01*
X141937845Y-71716500D01*
X141937842Y-71716500D01*
X141780158Y-71716500D01*
X141780155Y-71716500D01*
X141625510Y-71747261D01*
X141625498Y-71747264D01*
X141479827Y-71807602D01*
X141479814Y-71807609D01*
X141348711Y-71895210D01*
X141348707Y-71895213D01*
X141237213Y-72006707D01*
X141237210Y-72006711D01*
X141149609Y-72137814D01*
X141149602Y-72137827D01*
X141089264Y-72283498D01*
X141089261Y-72283510D01*
X141058500Y-72438153D01*
X120688499Y-72438153D01*
X120657737Y-72283503D01*
X120648001Y-72259998D01*
X120597397Y-72137827D01*
X120597390Y-72137814D01*
X120509789Y-72006711D01*
X120509786Y-72006707D01*
X120398292Y-71895213D01*
X120398288Y-71895210D01*
X120267185Y-71807609D01*
X120267172Y-71807602D01*
X120121501Y-71747264D01*
X120121489Y-71747261D01*
X119966845Y-71716500D01*
X119966842Y-71716500D01*
X119809158Y-71716500D01*
X119809155Y-71716500D01*
X119654510Y-71747261D01*
X119654498Y-71747264D01*
X119508827Y-71807602D01*
X119508814Y-71807609D01*
X119377711Y-71895210D01*
X119377707Y-71895213D01*
X119266213Y-72006707D01*
X119266210Y-72006711D01*
X119178609Y-72137814D01*
X119178602Y-72137827D01*
X119118264Y-72283498D01*
X119118261Y-72283510D01*
X119087500Y-72438153D01*
X118021499Y-72438153D01*
X117990737Y-72283503D01*
X117981001Y-72259998D01*
X117930397Y-72137827D01*
X117930390Y-72137814D01*
X117842789Y-72006711D01*
X117842786Y-72006707D01*
X117731292Y-71895213D01*
X117731288Y-71895210D01*
X117600185Y-71807609D01*
X117600172Y-71807602D01*
X117454501Y-71747264D01*
X117454489Y-71747261D01*
X117299845Y-71716500D01*
X117299842Y-71716500D01*
X117142158Y-71716500D01*
X117142155Y-71716500D01*
X116987510Y-71747261D01*
X116987498Y-71747264D01*
X116841827Y-71807602D01*
X116841814Y-71807609D01*
X116710711Y-71895210D01*
X116710707Y-71895213D01*
X116599213Y-72006707D01*
X116599210Y-72006711D01*
X116511609Y-72137814D01*
X116511602Y-72137827D01*
X116451264Y-72283498D01*
X116451261Y-72283510D01*
X116420500Y-72438153D01*
X96050499Y-72438153D01*
X96019737Y-72283503D01*
X96010001Y-72259998D01*
X95959397Y-72137827D01*
X95959390Y-72137814D01*
X95871789Y-72006711D01*
X95871786Y-72006707D01*
X95760292Y-71895213D01*
X95760288Y-71895210D01*
X95629185Y-71807609D01*
X95629172Y-71807602D01*
X95483501Y-71747264D01*
X95483489Y-71747261D01*
X95328845Y-71716500D01*
X95328842Y-71716500D01*
X95171158Y-71716500D01*
X95171155Y-71716500D01*
X95016510Y-71747261D01*
X95016498Y-71747264D01*
X94870827Y-71807602D01*
X94870814Y-71807609D01*
X94739711Y-71895210D01*
X94739707Y-71895213D01*
X94628213Y-72006707D01*
X94628210Y-72006711D01*
X94540609Y-72137814D01*
X94540602Y-72137827D01*
X94480264Y-72283498D01*
X94480261Y-72283510D01*
X94449500Y-72438153D01*
X79494500Y-72438153D01*
X79494500Y-70191153D01*
X98005500Y-70191153D01*
X98005500Y-70348846D01*
X98036261Y-70503489D01*
X98036264Y-70503501D01*
X98096602Y-70649172D01*
X98096609Y-70649185D01*
X98184210Y-70780288D01*
X98184213Y-70780292D01*
X98295707Y-70891786D01*
X98295711Y-70891789D01*
X98426814Y-70979390D01*
X98426827Y-70979397D01*
X98572498Y-71039735D01*
X98572503Y-71039737D01*
X98727153Y-71070499D01*
X98727156Y-71070500D01*
X98727158Y-71070500D01*
X98884844Y-71070500D01*
X98884845Y-71070499D01*
X99039497Y-71039737D01*
X99185179Y-70979394D01*
X99316289Y-70891789D01*
X99427789Y-70780289D01*
X99515394Y-70649179D01*
X99575737Y-70503497D01*
X99606500Y-70348842D01*
X99606500Y-70191158D01*
X99604112Y-70179153D01*
X102958500Y-70179153D01*
X102958500Y-70336846D01*
X102989261Y-70491489D01*
X102989264Y-70491501D01*
X103049602Y-70637172D01*
X103049609Y-70637185D01*
X103137210Y-70768288D01*
X103137213Y-70768292D01*
X103248707Y-70879786D01*
X103248711Y-70879789D01*
X103379814Y-70967390D01*
X103379827Y-70967397D01*
X103525498Y-71027735D01*
X103525503Y-71027737D01*
X103680153Y-71058499D01*
X103680156Y-71058500D01*
X103680158Y-71058500D01*
X103837844Y-71058500D01*
X103837845Y-71058499D01*
X103992497Y-71027737D01*
X104135881Y-70968346D01*
X104138172Y-70967397D01*
X104138172Y-70967396D01*
X104138179Y-70967394D01*
X104269289Y-70879789D01*
X104380789Y-70768289D01*
X104468394Y-70637179D01*
X104528737Y-70491497D01*
X104559500Y-70336842D01*
X104559500Y-70179158D01*
X104559500Y-70179155D01*
X104559499Y-70179153D01*
X107911500Y-70179153D01*
X107911500Y-70336846D01*
X107942261Y-70491489D01*
X107942264Y-70491501D01*
X108002602Y-70637172D01*
X108002609Y-70637185D01*
X108090210Y-70768288D01*
X108090213Y-70768292D01*
X108201707Y-70879786D01*
X108201711Y-70879789D01*
X108332814Y-70967390D01*
X108332827Y-70967397D01*
X108478498Y-71027735D01*
X108478503Y-71027737D01*
X108633153Y-71058499D01*
X108633156Y-71058500D01*
X108633158Y-71058500D01*
X108790844Y-71058500D01*
X108790845Y-71058499D01*
X108945497Y-71027737D01*
X109088881Y-70968346D01*
X109091172Y-70967397D01*
X109091172Y-70967396D01*
X109091179Y-70967394D01*
X109222289Y-70879789D01*
X109333789Y-70768289D01*
X109421394Y-70637179D01*
X109481737Y-70491497D01*
X109512500Y-70336842D01*
X109512500Y-70191153D01*
X112864500Y-70191153D01*
X112864500Y-70348846D01*
X112895261Y-70503489D01*
X112895264Y-70503501D01*
X112955602Y-70649172D01*
X112955609Y-70649185D01*
X113043210Y-70780288D01*
X113043213Y-70780292D01*
X113154707Y-70891786D01*
X113154711Y-70891789D01*
X113285814Y-70979390D01*
X113285827Y-70979397D01*
X113431498Y-71039735D01*
X113431503Y-71039737D01*
X113586153Y-71070499D01*
X113586156Y-71070500D01*
X113586158Y-71070500D01*
X113743844Y-71070500D01*
X113743845Y-71070499D01*
X113898497Y-71039737D01*
X114044179Y-70979394D01*
X114175289Y-70891789D01*
X114286789Y-70780289D01*
X114374394Y-70649179D01*
X114434737Y-70503497D01*
X114465500Y-70348842D01*
X114465500Y-70191158D01*
X114465500Y-70191155D01*
X114465499Y-70191153D01*
X114451299Y-70119764D01*
X114434737Y-70036503D01*
X114429769Y-70024510D01*
X114374397Y-69890827D01*
X114374390Y-69890814D01*
X114286789Y-69759711D01*
X114286786Y-69759707D01*
X114175292Y-69648213D01*
X114175288Y-69648210D01*
X114044185Y-69560609D01*
X114044172Y-69560602D01*
X113898501Y-69500264D01*
X113898489Y-69500261D01*
X113743845Y-69469500D01*
X113743842Y-69469500D01*
X113586158Y-69469500D01*
X113586155Y-69469500D01*
X113431510Y-69500261D01*
X113431498Y-69500264D01*
X113285827Y-69560602D01*
X113285814Y-69560609D01*
X113154711Y-69648210D01*
X113154707Y-69648213D01*
X113043213Y-69759707D01*
X113043210Y-69759711D01*
X112955609Y-69890814D01*
X112955602Y-69890827D01*
X112895264Y-70036498D01*
X112895261Y-70036510D01*
X112864500Y-70191153D01*
X109512500Y-70191153D01*
X109512500Y-70179158D01*
X109512500Y-70179155D01*
X109512499Y-70179153D01*
X109500686Y-70119764D01*
X109481737Y-70024503D01*
X109479148Y-70018253D01*
X109421397Y-69878827D01*
X109421390Y-69878814D01*
X109333789Y-69747711D01*
X109333786Y-69747707D01*
X109222292Y-69636213D01*
X109222288Y-69636210D01*
X109091185Y-69548609D01*
X109091172Y-69548602D01*
X108945501Y-69488264D01*
X108945489Y-69488261D01*
X108790845Y-69457500D01*
X108790842Y-69457500D01*
X108633158Y-69457500D01*
X108633155Y-69457500D01*
X108478510Y-69488261D01*
X108478498Y-69488264D01*
X108332827Y-69548602D01*
X108332814Y-69548609D01*
X108201711Y-69636210D01*
X108201707Y-69636213D01*
X108090213Y-69747707D01*
X108090210Y-69747711D01*
X108002609Y-69878814D01*
X108002602Y-69878827D01*
X107942264Y-70024498D01*
X107942261Y-70024510D01*
X107911500Y-70179153D01*
X104559499Y-70179153D01*
X104547686Y-70119764D01*
X104528737Y-70024503D01*
X104526148Y-70018253D01*
X104468397Y-69878827D01*
X104468390Y-69878814D01*
X104380789Y-69747711D01*
X104380786Y-69747707D01*
X104269292Y-69636213D01*
X104269288Y-69636210D01*
X104138185Y-69548609D01*
X104138172Y-69548602D01*
X103992501Y-69488264D01*
X103992489Y-69488261D01*
X103837845Y-69457500D01*
X103837842Y-69457500D01*
X103680158Y-69457500D01*
X103680155Y-69457500D01*
X103525510Y-69488261D01*
X103525498Y-69488264D01*
X103379827Y-69548602D01*
X103379814Y-69548609D01*
X103248711Y-69636210D01*
X103248707Y-69636213D01*
X103137213Y-69747707D01*
X103137210Y-69747711D01*
X103049609Y-69878814D01*
X103049602Y-69878827D01*
X102989264Y-70024498D01*
X102989261Y-70024510D01*
X102958500Y-70179153D01*
X99604112Y-70179153D01*
X99575737Y-70036503D01*
X99570769Y-70024510D01*
X99515397Y-69890827D01*
X99515390Y-69890814D01*
X99427789Y-69759711D01*
X99427786Y-69759707D01*
X99316292Y-69648213D01*
X99316288Y-69648210D01*
X99185185Y-69560609D01*
X99185172Y-69560602D01*
X99039501Y-69500264D01*
X99039489Y-69500261D01*
X98884845Y-69469500D01*
X98884842Y-69469500D01*
X98727158Y-69469500D01*
X98727155Y-69469500D01*
X98572510Y-69500261D01*
X98572498Y-69500264D01*
X98426827Y-69560602D01*
X98426814Y-69560609D01*
X98295711Y-69648210D01*
X98295707Y-69648213D01*
X98184213Y-69759707D01*
X98184210Y-69759711D01*
X98096609Y-69890814D01*
X98096602Y-69890827D01*
X98036264Y-70036498D01*
X98036261Y-70036510D01*
X98005500Y-70191153D01*
X79494500Y-70191153D01*
X79494500Y-69009153D01*
X94449500Y-69009153D01*
X94449500Y-69166846D01*
X94480261Y-69321489D01*
X94480264Y-69321501D01*
X94540602Y-69467172D01*
X94540609Y-69467185D01*
X94628210Y-69598288D01*
X94628213Y-69598292D01*
X94739707Y-69709786D01*
X94739711Y-69709789D01*
X94870814Y-69797390D01*
X94870827Y-69797397D01*
X95010820Y-69855383D01*
X95016503Y-69857737D01*
X95123776Y-69879075D01*
X95171153Y-69888499D01*
X95171156Y-69888500D01*
X95171158Y-69888500D01*
X95328844Y-69888500D01*
X95328845Y-69888499D01*
X95483497Y-69857737D01*
X95629179Y-69797394D01*
X95760289Y-69709789D01*
X95871789Y-69598289D01*
X95959394Y-69467179D01*
X96019737Y-69321497D01*
X96050500Y-69166842D01*
X96050500Y-69009158D01*
X96050500Y-69009155D01*
X96050499Y-69009153D01*
X116420500Y-69009153D01*
X116420500Y-69166846D01*
X116451261Y-69321489D01*
X116451264Y-69321501D01*
X116511602Y-69467172D01*
X116511609Y-69467185D01*
X116599210Y-69598288D01*
X116599213Y-69598292D01*
X116710707Y-69709786D01*
X116710711Y-69709789D01*
X116841814Y-69797390D01*
X116841827Y-69797397D01*
X116981820Y-69855383D01*
X116987503Y-69857737D01*
X117094776Y-69879075D01*
X117142153Y-69888499D01*
X117142156Y-69888500D01*
X117142158Y-69888500D01*
X117299844Y-69888500D01*
X117299845Y-69888499D01*
X117454497Y-69857737D01*
X117600179Y-69797394D01*
X117731289Y-69709789D01*
X117842789Y-69598289D01*
X117930394Y-69467179D01*
X117990737Y-69321497D01*
X118021500Y-69166842D01*
X118021500Y-69009158D01*
X118021500Y-69009155D01*
X118021499Y-69009153D01*
X119087500Y-69009153D01*
X119087500Y-69166846D01*
X119118261Y-69321489D01*
X119118264Y-69321501D01*
X119178602Y-69467172D01*
X119178609Y-69467185D01*
X119266210Y-69598288D01*
X119266213Y-69598292D01*
X119377707Y-69709786D01*
X119377711Y-69709789D01*
X119508814Y-69797390D01*
X119508827Y-69797397D01*
X119648820Y-69855383D01*
X119654503Y-69857737D01*
X119761776Y-69879075D01*
X119809153Y-69888499D01*
X119809156Y-69888500D01*
X119809158Y-69888500D01*
X119966844Y-69888500D01*
X119966845Y-69888499D01*
X120121497Y-69857737D01*
X120267179Y-69797394D01*
X120398289Y-69709789D01*
X120509789Y-69598289D01*
X120597394Y-69467179D01*
X120657737Y-69321497D01*
X120688500Y-69166842D01*
X120688500Y-69009158D01*
X120688500Y-69009155D01*
X120688499Y-69009153D01*
X141058500Y-69009153D01*
X141058500Y-69166846D01*
X141089261Y-69321489D01*
X141089264Y-69321501D01*
X141149602Y-69467172D01*
X141149609Y-69467185D01*
X141237210Y-69598288D01*
X141237213Y-69598292D01*
X141348707Y-69709786D01*
X141348711Y-69709789D01*
X141479814Y-69797390D01*
X141479827Y-69797397D01*
X141619820Y-69855383D01*
X141625503Y-69857737D01*
X141732776Y-69879075D01*
X141780153Y-69888499D01*
X141780156Y-69888500D01*
X141780158Y-69888500D01*
X141937844Y-69888500D01*
X141937845Y-69888499D01*
X142092497Y-69857737D01*
X142238179Y-69797394D01*
X142369289Y-69709789D01*
X142480789Y-69598289D01*
X142568394Y-69467179D01*
X142628737Y-69321497D01*
X142659500Y-69166842D01*
X142659500Y-69009158D01*
X142654825Y-68985653D01*
X143217500Y-68985653D01*
X143217500Y-69143346D01*
X143248261Y-69297989D01*
X143248264Y-69298001D01*
X143308602Y-69443672D01*
X143308609Y-69443685D01*
X143396210Y-69574788D01*
X143396213Y-69574792D01*
X143507707Y-69686286D01*
X143507711Y-69686289D01*
X143638814Y-69773890D01*
X143638827Y-69773897D01*
X143784498Y-69834235D01*
X143784503Y-69834237D01*
X143784507Y-69834237D01*
X143784508Y-69834238D01*
X143890808Y-69855383D01*
X143952718Y-69887768D01*
X143987293Y-69948484D01*
X143983553Y-70018253D01*
X143942686Y-70074925D01*
X143890808Y-70098617D01*
X143784508Y-70119761D01*
X143784498Y-70119764D01*
X143638827Y-70180102D01*
X143638814Y-70180109D01*
X143507711Y-70267710D01*
X143507707Y-70267713D01*
X143396213Y-70379207D01*
X143396210Y-70379211D01*
X143308609Y-70510314D01*
X143308602Y-70510327D01*
X143248264Y-70655998D01*
X143248261Y-70656010D01*
X143217500Y-70810653D01*
X143217500Y-70968346D01*
X143248261Y-71122989D01*
X143248264Y-71123001D01*
X143308602Y-71268672D01*
X143308609Y-71268685D01*
X143396210Y-71399788D01*
X143396213Y-71399792D01*
X143507707Y-71511286D01*
X143507711Y-71511289D01*
X143623111Y-71588398D01*
X143667916Y-71642011D01*
X143676623Y-71711336D01*
X143646468Y-71774363D01*
X143623111Y-71794602D01*
X143507711Y-71871710D01*
X143507707Y-71871713D01*
X143396213Y-71983207D01*
X143396210Y-71983211D01*
X143308609Y-72114314D01*
X143308602Y-72114327D01*
X143248264Y-72259998D01*
X143248261Y-72260010D01*
X143217500Y-72414653D01*
X143217500Y-72572346D01*
X143248261Y-72726989D01*
X143248264Y-72727001D01*
X143308602Y-72872672D01*
X143308609Y-72872685D01*
X143396210Y-73003788D01*
X143396213Y-73003792D01*
X143507707Y-73115286D01*
X143507711Y-73115289D01*
X143638814Y-73202890D01*
X143638827Y-73202897D01*
X143784498Y-73263235D01*
X143784503Y-73263237D01*
X143902635Y-73286735D01*
X143939153Y-73293999D01*
X143939156Y-73294000D01*
X143939158Y-73294000D01*
X144096844Y-73294000D01*
X144096845Y-73293999D01*
X144251497Y-73263237D01*
X144397179Y-73202894D01*
X144528289Y-73115289D01*
X144639789Y-73003789D01*
X144727394Y-72872679D01*
X144787737Y-72726997D01*
X144818500Y-72572342D01*
X144818500Y-72414658D01*
X144818500Y-72414655D01*
X144818499Y-72414653D01*
X144787738Y-72260010D01*
X144787737Y-72260003D01*
X144787735Y-72259998D01*
X144727397Y-72114327D01*
X144727390Y-72114314D01*
X144639789Y-71983211D01*
X144639786Y-71983207D01*
X144528292Y-71871713D01*
X144528288Y-71871710D01*
X144412888Y-71794602D01*
X144368083Y-71740990D01*
X144359376Y-71671665D01*
X144389530Y-71608637D01*
X144412888Y-71588398D01*
X144458077Y-71558202D01*
X144528289Y-71511289D01*
X144639789Y-71399789D01*
X144727394Y-71268679D01*
X144787737Y-71122997D01*
X144818500Y-70968342D01*
X144818500Y-70810658D01*
X144818500Y-70810655D01*
X144818499Y-70810653D01*
X144787738Y-70656010D01*
X144787737Y-70656003D01*
X144784913Y-70649185D01*
X144727397Y-70510327D01*
X144727390Y-70510314D01*
X144639789Y-70379211D01*
X144639786Y-70379207D01*
X144528292Y-70267713D01*
X144528288Y-70267710D01*
X144397185Y-70180109D01*
X144397172Y-70180102D01*
X144251501Y-70119764D01*
X144251489Y-70119761D01*
X144145192Y-70098617D01*
X144083281Y-70066232D01*
X144048707Y-70005516D01*
X144052446Y-69935747D01*
X144093313Y-69879075D01*
X144145192Y-69855383D01*
X144192705Y-69845931D01*
X144251497Y-69834237D01*
X144397179Y-69773894D01*
X144528289Y-69686289D01*
X144639789Y-69574789D01*
X144727394Y-69443679D01*
X144787737Y-69297997D01*
X144818500Y-69143342D01*
X144818500Y-68985658D01*
X144818500Y-68985655D01*
X144818499Y-68985653D01*
X144787738Y-68831010D01*
X144787737Y-68831003D01*
X144787735Y-68830998D01*
X144727397Y-68685327D01*
X144727390Y-68685314D01*
X144639789Y-68554211D01*
X144639786Y-68554207D01*
X144528292Y-68442713D01*
X144528288Y-68442710D01*
X144397185Y-68355109D01*
X144397172Y-68355102D01*
X144251501Y-68294764D01*
X144251489Y-68294761D01*
X144096845Y-68264000D01*
X144096842Y-68264000D01*
X143939158Y-68264000D01*
X143939155Y-68264000D01*
X143784510Y-68294761D01*
X143784498Y-68294764D01*
X143638827Y-68355102D01*
X143638814Y-68355109D01*
X143507711Y-68442710D01*
X143507707Y-68442713D01*
X143396213Y-68554207D01*
X143396210Y-68554211D01*
X143308609Y-68685314D01*
X143308602Y-68685327D01*
X143248264Y-68830998D01*
X143248261Y-68831010D01*
X143217500Y-68985653D01*
X142654825Y-68985653D01*
X142628737Y-68854503D01*
X142619001Y-68830998D01*
X142568397Y-68708827D01*
X142568390Y-68708814D01*
X142480789Y-68577711D01*
X142480786Y-68577707D01*
X142369292Y-68466213D01*
X142369288Y-68466210D01*
X142238185Y-68378609D01*
X142238172Y-68378602D01*
X142092501Y-68318264D01*
X142092489Y-68318261D01*
X141937845Y-68287500D01*
X141937842Y-68287500D01*
X141780158Y-68287500D01*
X141780155Y-68287500D01*
X141625510Y-68318261D01*
X141625498Y-68318264D01*
X141479827Y-68378602D01*
X141479814Y-68378609D01*
X141348711Y-68466210D01*
X141348707Y-68466213D01*
X141237213Y-68577707D01*
X141237210Y-68577711D01*
X141149609Y-68708814D01*
X141149602Y-68708827D01*
X141089264Y-68854498D01*
X141089261Y-68854510D01*
X141058500Y-69009153D01*
X120688499Y-69009153D01*
X120687426Y-69003757D01*
X120657737Y-68854503D01*
X120648001Y-68830998D01*
X120597397Y-68708827D01*
X120597390Y-68708814D01*
X120509789Y-68577711D01*
X120509786Y-68577707D01*
X120398292Y-68466213D01*
X120398288Y-68466210D01*
X120267185Y-68378609D01*
X120267172Y-68378602D01*
X120121501Y-68318264D01*
X120121489Y-68318261D01*
X119966845Y-68287500D01*
X119966842Y-68287500D01*
X119809158Y-68287500D01*
X119809155Y-68287500D01*
X119654510Y-68318261D01*
X119654498Y-68318264D01*
X119508827Y-68378602D01*
X119508814Y-68378609D01*
X119377711Y-68466210D01*
X119377707Y-68466213D01*
X119266213Y-68577707D01*
X119266210Y-68577711D01*
X119178609Y-68708814D01*
X119178602Y-68708827D01*
X119118264Y-68854498D01*
X119118261Y-68854510D01*
X119087500Y-69009153D01*
X118021499Y-69009153D01*
X118020426Y-69003757D01*
X117990737Y-68854503D01*
X117981001Y-68830998D01*
X117930397Y-68708827D01*
X117930390Y-68708814D01*
X117842789Y-68577711D01*
X117842786Y-68577707D01*
X117731292Y-68466213D01*
X117731288Y-68466210D01*
X117600185Y-68378609D01*
X117600172Y-68378602D01*
X117454501Y-68318264D01*
X117454489Y-68318261D01*
X117299845Y-68287500D01*
X117299842Y-68287500D01*
X117142158Y-68287500D01*
X117142155Y-68287500D01*
X116987510Y-68318261D01*
X116987498Y-68318264D01*
X116841827Y-68378602D01*
X116841814Y-68378609D01*
X116710711Y-68466210D01*
X116710707Y-68466213D01*
X116599213Y-68577707D01*
X116599210Y-68577711D01*
X116511609Y-68708814D01*
X116511602Y-68708827D01*
X116451264Y-68854498D01*
X116451261Y-68854510D01*
X116420500Y-69009153D01*
X96050499Y-69009153D01*
X96049426Y-69003757D01*
X96019737Y-68854503D01*
X96010001Y-68830998D01*
X95959397Y-68708827D01*
X95959390Y-68708814D01*
X95871789Y-68577711D01*
X95871786Y-68577707D01*
X95760292Y-68466213D01*
X95760288Y-68466210D01*
X95629185Y-68378609D01*
X95629172Y-68378602D01*
X95483501Y-68318264D01*
X95483489Y-68318261D01*
X95328845Y-68287500D01*
X95328842Y-68287500D01*
X95171158Y-68287500D01*
X95171155Y-68287500D01*
X95016510Y-68318261D01*
X95016498Y-68318264D01*
X94870827Y-68378602D01*
X94870814Y-68378609D01*
X94739711Y-68466210D01*
X94739707Y-68466213D01*
X94628213Y-68577707D01*
X94628210Y-68577711D01*
X94540609Y-68708814D01*
X94540602Y-68708827D01*
X94480264Y-68854498D01*
X94480261Y-68854510D01*
X94449500Y-69009153D01*
X79494500Y-69009153D01*
X79494500Y-66088153D01*
X151218500Y-66088153D01*
X151218500Y-66245846D01*
X151249261Y-66400489D01*
X151249264Y-66400501D01*
X151309602Y-66546172D01*
X151309609Y-66546185D01*
X151397210Y-66677288D01*
X151397213Y-66677292D01*
X151508707Y-66788786D01*
X151508711Y-66788789D01*
X151639814Y-66876390D01*
X151639827Y-66876397D01*
X151785498Y-66936735D01*
X151785503Y-66936737D01*
X151940153Y-66967499D01*
X151940156Y-66967500D01*
X151940158Y-66967500D01*
X152097844Y-66967500D01*
X152097845Y-66967499D01*
X152252497Y-66936737D01*
X152398179Y-66876394D01*
X152529289Y-66788789D01*
X152640789Y-66677289D01*
X152728394Y-66546179D01*
X152788737Y-66400497D01*
X152819500Y-66245842D01*
X152819500Y-66088158D01*
X152819500Y-66088155D01*
X152819499Y-66088153D01*
X152788738Y-65933510D01*
X152788737Y-65933503D01*
X152788735Y-65933498D01*
X152728397Y-65787827D01*
X152728390Y-65787814D01*
X152640789Y-65656711D01*
X152640786Y-65656707D01*
X152529292Y-65545213D01*
X152529288Y-65545210D01*
X152398185Y-65457609D01*
X152398172Y-65457602D01*
X152252501Y-65397264D01*
X152252489Y-65397261D01*
X152097845Y-65366500D01*
X152097842Y-65366500D01*
X151940158Y-65366500D01*
X151940155Y-65366500D01*
X151785510Y-65397261D01*
X151785498Y-65397264D01*
X151639827Y-65457602D01*
X151639814Y-65457609D01*
X151508711Y-65545210D01*
X151508707Y-65545213D01*
X151397213Y-65656707D01*
X151397210Y-65656711D01*
X151309609Y-65787814D01*
X151309602Y-65787827D01*
X151249264Y-65933498D01*
X151249261Y-65933510D01*
X151218500Y-66088153D01*
X79494500Y-66088153D01*
X79494500Y-61676263D01*
X98946000Y-61676263D01*
X98946000Y-63381736D01*
X98976889Y-63576763D01*
X99037908Y-63764558D01*
X99037909Y-63764561D01*
X99127556Y-63940501D01*
X99127558Y-63940504D01*
X99243615Y-64100246D01*
X99383253Y-64239884D01*
X99532734Y-64348486D01*
X99542999Y-64355944D01*
X99718939Y-64445591D01*
X99844137Y-64486270D01*
X99906736Y-64506610D01*
X100101764Y-64537500D01*
X100101769Y-64537500D01*
X100299236Y-64537500D01*
X100494263Y-64506610D01*
X100682061Y-64445591D01*
X100858001Y-64355944D01*
X100947692Y-64290779D01*
X101017746Y-64239884D01*
X101017748Y-64239881D01*
X101017752Y-64239879D01*
X101157379Y-64100252D01*
X101157381Y-64100248D01*
X101157384Y-64100246D01*
X101208279Y-64030192D01*
X101273444Y-63940501D01*
X101363091Y-63764561D01*
X101424110Y-63576763D01*
X101455000Y-63381736D01*
X101455000Y-61676263D01*
X112711000Y-61676263D01*
X112711000Y-63381736D01*
X112741889Y-63576763D01*
X112802908Y-63764558D01*
X112802909Y-63764561D01*
X112892556Y-63940501D01*
X112892558Y-63940504D01*
X113008615Y-64100246D01*
X113148253Y-64239884D01*
X113297734Y-64348486D01*
X113307999Y-64355944D01*
X113483939Y-64445591D01*
X113609137Y-64486270D01*
X113671736Y-64506610D01*
X113866764Y-64537500D01*
X113866769Y-64537500D01*
X114064236Y-64537500D01*
X114259263Y-64506610D01*
X114447061Y-64445591D01*
X114623001Y-64355944D01*
X114712692Y-64290779D01*
X114782746Y-64239884D01*
X114782748Y-64239881D01*
X114782752Y-64239879D01*
X114922379Y-64100252D01*
X114922381Y-64100248D01*
X114922384Y-64100246D01*
X114973279Y-64030192D01*
X115038444Y-63940501D01*
X115128091Y-63764561D01*
X115189110Y-63576763D01*
X115220000Y-63381736D01*
X115220000Y-61676263D01*
X126476000Y-61676263D01*
X126476000Y-63381736D01*
X126506889Y-63576763D01*
X126567908Y-63764558D01*
X126567909Y-63764561D01*
X126657556Y-63940501D01*
X126657558Y-63940504D01*
X126773615Y-64100246D01*
X126913253Y-64239884D01*
X127062734Y-64348486D01*
X127072999Y-64355944D01*
X127248939Y-64445591D01*
X127374137Y-64486270D01*
X127436736Y-64506610D01*
X127631764Y-64537500D01*
X127631769Y-64537500D01*
X127829236Y-64537500D01*
X128024263Y-64506610D01*
X128212061Y-64445591D01*
X128388001Y-64355944D01*
X128477692Y-64290779D01*
X128547746Y-64239884D01*
X128547748Y-64239881D01*
X128547752Y-64239879D01*
X128687379Y-64100252D01*
X128687381Y-64100248D01*
X128687384Y-64100246D01*
X128738279Y-64030192D01*
X128803444Y-63940501D01*
X128893091Y-63764561D01*
X128954110Y-63576763D01*
X128985000Y-63381736D01*
X128985000Y-61676263D01*
X140241000Y-61676263D01*
X140241000Y-63381736D01*
X140271889Y-63576763D01*
X140332908Y-63764558D01*
X140332909Y-63764561D01*
X140422556Y-63940501D01*
X140422558Y-63940504D01*
X140538615Y-64100246D01*
X140678253Y-64239884D01*
X140827734Y-64348486D01*
X140837999Y-64355944D01*
X141013939Y-64445591D01*
X141139137Y-64486270D01*
X141201736Y-64506610D01*
X141396764Y-64537500D01*
X141396769Y-64537500D01*
X141594236Y-64537500D01*
X141789263Y-64506610D01*
X141977061Y-64445591D01*
X142153001Y-64355944D01*
X142242692Y-64290779D01*
X142312746Y-64239884D01*
X142312748Y-64239881D01*
X142312752Y-64239879D01*
X142452379Y-64100252D01*
X142452381Y-64100248D01*
X142452384Y-64100246D01*
X142503279Y-64030192D01*
X142568444Y-63940501D01*
X142658091Y-63764561D01*
X142719110Y-63576763D01*
X142750000Y-63381736D01*
X142750000Y-61676263D01*
X142719110Y-61481236D01*
X142698770Y-61418637D01*
X142658091Y-61293439D01*
X142568444Y-61117499D01*
X142560986Y-61107234D01*
X142452384Y-60957753D01*
X142312746Y-60818115D01*
X142153004Y-60702058D01*
X142153003Y-60702057D01*
X142153001Y-60702056D01*
X141977061Y-60612409D01*
X141977058Y-60612408D01*
X141789263Y-60551389D01*
X141594236Y-60520500D01*
X141594231Y-60520500D01*
X141396769Y-60520500D01*
X141396764Y-60520500D01*
X141201736Y-60551389D01*
X141013941Y-60612408D01*
X140837995Y-60702058D01*
X140678253Y-60818115D01*
X140538615Y-60957753D01*
X140422558Y-61117495D01*
X140332908Y-61293441D01*
X140271889Y-61481236D01*
X140241000Y-61676263D01*
X128985000Y-61676263D01*
X128954110Y-61481236D01*
X128933770Y-61418637D01*
X128893091Y-61293439D01*
X128803444Y-61117499D01*
X128795986Y-61107234D01*
X128687384Y-60957753D01*
X128547746Y-60818115D01*
X128388004Y-60702058D01*
X128388003Y-60702057D01*
X128388001Y-60702056D01*
X128212061Y-60612409D01*
X128212058Y-60612408D01*
X128024263Y-60551389D01*
X127829236Y-60520500D01*
X127829231Y-60520500D01*
X127631769Y-60520500D01*
X127631764Y-60520500D01*
X127436736Y-60551389D01*
X127248941Y-60612408D01*
X127072995Y-60702058D01*
X126913253Y-60818115D01*
X126773615Y-60957753D01*
X126657558Y-61117495D01*
X126567908Y-61293441D01*
X126506889Y-61481236D01*
X126476000Y-61676263D01*
X115220000Y-61676263D01*
X115189110Y-61481236D01*
X115168770Y-61418637D01*
X115128091Y-61293439D01*
X115038444Y-61117499D01*
X115030986Y-61107234D01*
X114922384Y-60957753D01*
X114782746Y-60818115D01*
X114623004Y-60702058D01*
X114623003Y-60702057D01*
X114623001Y-60702056D01*
X114447061Y-60612409D01*
X114447058Y-60612408D01*
X114259263Y-60551389D01*
X114064236Y-60520500D01*
X114064231Y-60520500D01*
X113866769Y-60520500D01*
X113866764Y-60520500D01*
X113671736Y-60551389D01*
X113483941Y-60612408D01*
X113307995Y-60702058D01*
X113148253Y-60818115D01*
X113008615Y-60957753D01*
X112892558Y-61117495D01*
X112802908Y-61293441D01*
X112741889Y-61481236D01*
X112711000Y-61676263D01*
X101455000Y-61676263D01*
X101424110Y-61481236D01*
X101403770Y-61418637D01*
X101363091Y-61293439D01*
X101273444Y-61117499D01*
X101265986Y-61107234D01*
X101157384Y-60957753D01*
X101017746Y-60818115D01*
X100858004Y-60702058D01*
X100858003Y-60702057D01*
X100858001Y-60702056D01*
X100682061Y-60612409D01*
X100682058Y-60612408D01*
X100494263Y-60551389D01*
X100299236Y-60520500D01*
X100299231Y-60520500D01*
X100101769Y-60520500D01*
X100101764Y-60520500D01*
X99906736Y-60551389D01*
X99718941Y-60612408D01*
X99542995Y-60702058D01*
X99383253Y-60818115D01*
X99243615Y-60957753D01*
X99127558Y-61117495D01*
X99037908Y-61293441D01*
X98976889Y-61481236D01*
X98946000Y-61676263D01*
X79494500Y-61676263D01*
X79494500Y-56876263D01*
X89446000Y-56876263D01*
X89446000Y-58581736D01*
X89476889Y-58776763D01*
X89537908Y-58964558D01*
X89537909Y-58964561D01*
X89627556Y-59140501D01*
X89627558Y-59140504D01*
X89743615Y-59300246D01*
X89883253Y-59439884D01*
X90032734Y-59548486D01*
X90042999Y-59555944D01*
X90218939Y-59645591D01*
X90344137Y-59686270D01*
X90406736Y-59706610D01*
X90601764Y-59737500D01*
X90601769Y-59737500D01*
X90799236Y-59737500D01*
X90994263Y-59706610D01*
X91182061Y-59645591D01*
X91358001Y-59555944D01*
X91447692Y-59490779D01*
X91517746Y-59439884D01*
X91517748Y-59439881D01*
X91517752Y-59439879D01*
X91657379Y-59300252D01*
X91657381Y-59300248D01*
X91657384Y-59300246D01*
X91708279Y-59230192D01*
X91773444Y-59140501D01*
X91863091Y-58964561D01*
X91924110Y-58776763D01*
X91955000Y-58581736D01*
X91955000Y-56876263D01*
X103211000Y-56876263D01*
X103211000Y-58581736D01*
X103241889Y-58776763D01*
X103302908Y-58964558D01*
X103302909Y-58964561D01*
X103392556Y-59140501D01*
X103392558Y-59140504D01*
X103508615Y-59300246D01*
X103648253Y-59439884D01*
X103797734Y-59548486D01*
X103807999Y-59555944D01*
X103983939Y-59645591D01*
X104109137Y-59686270D01*
X104171736Y-59706610D01*
X104366764Y-59737500D01*
X104366769Y-59737500D01*
X104564236Y-59737500D01*
X104759263Y-59706610D01*
X104947061Y-59645591D01*
X105123001Y-59555944D01*
X105212692Y-59490779D01*
X105282746Y-59439884D01*
X105282748Y-59439881D01*
X105282752Y-59439879D01*
X105422379Y-59300252D01*
X105422381Y-59300248D01*
X105422384Y-59300246D01*
X105473279Y-59230192D01*
X105538444Y-59140501D01*
X105628091Y-58964561D01*
X105689110Y-58776763D01*
X105720000Y-58581736D01*
X105720000Y-56876263D01*
X116976000Y-56876263D01*
X116976000Y-58581736D01*
X117006889Y-58776763D01*
X117067908Y-58964558D01*
X117067909Y-58964561D01*
X117157556Y-59140501D01*
X117157558Y-59140504D01*
X117273615Y-59300246D01*
X117413253Y-59439884D01*
X117562734Y-59548486D01*
X117572999Y-59555944D01*
X117748939Y-59645591D01*
X117874137Y-59686270D01*
X117936736Y-59706610D01*
X118131764Y-59737500D01*
X118131769Y-59737500D01*
X118329236Y-59737500D01*
X118524263Y-59706610D01*
X118712061Y-59645591D01*
X118888001Y-59555944D01*
X118977692Y-59490779D01*
X119047746Y-59439884D01*
X119047748Y-59439881D01*
X119047752Y-59439879D01*
X119187379Y-59300252D01*
X119187381Y-59300248D01*
X119187384Y-59300246D01*
X119238279Y-59230192D01*
X119303444Y-59140501D01*
X119393091Y-58964561D01*
X119454110Y-58776763D01*
X119485000Y-58581736D01*
X119485000Y-56876263D01*
X130741000Y-56876263D01*
X130741000Y-58581736D01*
X130771889Y-58776763D01*
X130832908Y-58964558D01*
X130832909Y-58964561D01*
X130922556Y-59140501D01*
X130922558Y-59140504D01*
X131038615Y-59300246D01*
X131178253Y-59439884D01*
X131327734Y-59548486D01*
X131337999Y-59555944D01*
X131513939Y-59645591D01*
X131639137Y-59686270D01*
X131701736Y-59706610D01*
X131896764Y-59737500D01*
X131896769Y-59737500D01*
X132094236Y-59737500D01*
X132289263Y-59706610D01*
X132477061Y-59645591D01*
X132653001Y-59555944D01*
X132742692Y-59490779D01*
X132812746Y-59439884D01*
X132812748Y-59439881D01*
X132812752Y-59439879D01*
X132952379Y-59300252D01*
X132952381Y-59300248D01*
X132952384Y-59300246D01*
X133003279Y-59230192D01*
X133068444Y-59140501D01*
X133158091Y-58964561D01*
X133219110Y-58776763D01*
X133250000Y-58581736D01*
X133250000Y-56876263D01*
X133219110Y-56681236D01*
X133198770Y-56618637D01*
X133158091Y-56493439D01*
X133068444Y-56317499D01*
X133060986Y-56307234D01*
X132952384Y-56157753D01*
X132812746Y-56018115D01*
X132653004Y-55902058D01*
X132653003Y-55902057D01*
X132653001Y-55902056D01*
X132477061Y-55812409D01*
X132477058Y-55812408D01*
X132289263Y-55751389D01*
X132094236Y-55720500D01*
X132094231Y-55720500D01*
X131896769Y-55720500D01*
X131896764Y-55720500D01*
X131701736Y-55751389D01*
X131513941Y-55812408D01*
X131337995Y-55902058D01*
X131178253Y-56018115D01*
X131038615Y-56157753D01*
X130922558Y-56317495D01*
X130832908Y-56493441D01*
X130771889Y-56681236D01*
X130741000Y-56876263D01*
X119485000Y-56876263D01*
X119454110Y-56681236D01*
X119433770Y-56618637D01*
X119393091Y-56493439D01*
X119303444Y-56317499D01*
X119295986Y-56307234D01*
X119187384Y-56157753D01*
X119047746Y-56018115D01*
X118888004Y-55902058D01*
X118888003Y-55902057D01*
X118888001Y-55902056D01*
X118712061Y-55812409D01*
X118712058Y-55812408D01*
X118524263Y-55751389D01*
X118329236Y-55720500D01*
X118329231Y-55720500D01*
X118131769Y-55720500D01*
X118131764Y-55720500D01*
X117936736Y-55751389D01*
X117748941Y-55812408D01*
X117572995Y-55902058D01*
X117413253Y-56018115D01*
X117273615Y-56157753D01*
X117157558Y-56317495D01*
X117067908Y-56493441D01*
X117006889Y-56681236D01*
X116976000Y-56876263D01*
X105720000Y-56876263D01*
X105689110Y-56681236D01*
X105668770Y-56618637D01*
X105628091Y-56493439D01*
X105538444Y-56317499D01*
X105530986Y-56307234D01*
X105422384Y-56157753D01*
X105282746Y-56018115D01*
X105123004Y-55902058D01*
X105123003Y-55902057D01*
X105123001Y-55902056D01*
X104947061Y-55812409D01*
X104947058Y-55812408D01*
X104759263Y-55751389D01*
X104564236Y-55720500D01*
X104564231Y-55720500D01*
X104366769Y-55720500D01*
X104366764Y-55720500D01*
X104171736Y-55751389D01*
X103983941Y-55812408D01*
X103807995Y-55902058D01*
X103648253Y-56018115D01*
X103508615Y-56157753D01*
X103392558Y-56317495D01*
X103302908Y-56493441D01*
X103241889Y-56681236D01*
X103211000Y-56876263D01*
X91955000Y-56876263D01*
X91924110Y-56681236D01*
X91903770Y-56618637D01*
X91863091Y-56493439D01*
X91773444Y-56317499D01*
X91765986Y-56307234D01*
X91657384Y-56157753D01*
X91517746Y-56018115D01*
X91358004Y-55902058D01*
X91358003Y-55902057D01*
X91358001Y-55902056D01*
X91182061Y-55812409D01*
X91182058Y-55812408D01*
X90994263Y-55751389D01*
X90799236Y-55720500D01*
X90799231Y-55720500D01*
X90601769Y-55720500D01*
X90601764Y-55720500D01*
X90406736Y-55751389D01*
X90218941Y-55812408D01*
X90042995Y-55902058D01*
X89883253Y-56018115D01*
X89743615Y-56157753D01*
X89627558Y-56317495D01*
X89537908Y-56493441D01*
X89476889Y-56681236D01*
X89446000Y-56876263D01*
X79494500Y-56876263D01*
X79494500Y-53979000D01*
X93216464Y-53979000D01*
X94267488Y-53979000D01*
X94234575Y-54036007D01*
X94200500Y-54163174D01*
X94200500Y-54294826D01*
X94234575Y-54421993D01*
X94267488Y-54479000D01*
X93216464Y-54479000D01*
X93223376Y-54522642D01*
X93223376Y-54522643D01*
X93284373Y-54710371D01*
X93373985Y-54886242D01*
X93489996Y-55045919D01*
X93490000Y-55045924D01*
X93629575Y-55185499D01*
X93629580Y-55185503D01*
X93789257Y-55301514D01*
X93965126Y-55391126D01*
X94152853Y-55452123D01*
X94347803Y-55483000D01*
X94950500Y-55483000D01*
X94950500Y-54729000D01*
X95450500Y-54729000D01*
X95450500Y-55483000D01*
X96053197Y-55483000D01*
X96248146Y-55452123D01*
X96435873Y-55391126D01*
X96611742Y-55301514D01*
X96771419Y-55185503D01*
X96771424Y-55185499D01*
X96910999Y-55045924D01*
X96911003Y-55045919D01*
X97027014Y-54886242D01*
X97116626Y-54710371D01*
X97177623Y-54522643D01*
X97177623Y-54522642D01*
X97184536Y-54479000D01*
X96133512Y-54479000D01*
X96166425Y-54421993D01*
X96200500Y-54294826D01*
X96200500Y-54163174D01*
X96166425Y-54036007D01*
X96133512Y-53979000D01*
X97184536Y-53979000D01*
X106981464Y-53979000D01*
X108032488Y-53979000D01*
X107999575Y-54036007D01*
X107965500Y-54163174D01*
X107965500Y-54294826D01*
X107999575Y-54421993D01*
X108032488Y-54479000D01*
X106981464Y-54479000D01*
X106988376Y-54522642D01*
X106988376Y-54522643D01*
X107049373Y-54710371D01*
X107138985Y-54886242D01*
X107254996Y-55045919D01*
X107255000Y-55045924D01*
X107394575Y-55185499D01*
X107394580Y-55185503D01*
X107554257Y-55301514D01*
X107730126Y-55391126D01*
X107917853Y-55452123D01*
X108112803Y-55483000D01*
X108715500Y-55483000D01*
X108715500Y-54729000D01*
X109215500Y-54729000D01*
X109215500Y-55483000D01*
X109818197Y-55483000D01*
X110013146Y-55452123D01*
X110200873Y-55391126D01*
X110376742Y-55301514D01*
X110536419Y-55185503D01*
X110536424Y-55185499D01*
X110675999Y-55045924D01*
X110676003Y-55045919D01*
X110792014Y-54886242D01*
X110881626Y-54710371D01*
X110942623Y-54522643D01*
X110942623Y-54522642D01*
X110949536Y-54479000D01*
X109898512Y-54479000D01*
X109931425Y-54421993D01*
X109965500Y-54294826D01*
X109965500Y-54163174D01*
X109931425Y-54036007D01*
X109898512Y-53979000D01*
X110949536Y-53979000D01*
X120746464Y-53979000D01*
X121797488Y-53979000D01*
X121764575Y-54036007D01*
X121730500Y-54163174D01*
X121730500Y-54294826D01*
X121764575Y-54421993D01*
X121797488Y-54479000D01*
X120746464Y-54479000D01*
X120753376Y-54522642D01*
X120753376Y-54522643D01*
X120814373Y-54710371D01*
X120903985Y-54886242D01*
X121019996Y-55045919D01*
X121020000Y-55045924D01*
X121159575Y-55185499D01*
X121159580Y-55185503D01*
X121319257Y-55301514D01*
X121495126Y-55391126D01*
X121682853Y-55452123D01*
X121877803Y-55483000D01*
X122480500Y-55483000D01*
X122480500Y-54729000D01*
X122980500Y-54729000D01*
X122980500Y-55483000D01*
X123583197Y-55483000D01*
X123778146Y-55452123D01*
X123965873Y-55391126D01*
X124141742Y-55301514D01*
X124301419Y-55185503D01*
X124301424Y-55185499D01*
X124440999Y-55045924D01*
X124441003Y-55045919D01*
X124557014Y-54886242D01*
X124646626Y-54710371D01*
X124707623Y-54522643D01*
X124707623Y-54522642D01*
X124714536Y-54479000D01*
X123663512Y-54479000D01*
X123696425Y-54421993D01*
X123730500Y-54294826D01*
X123730500Y-54163174D01*
X123696425Y-54036007D01*
X123663512Y-53979000D01*
X124714536Y-53979000D01*
X134511464Y-53979000D01*
X135562488Y-53979000D01*
X135529575Y-54036007D01*
X135495500Y-54163174D01*
X135495500Y-54294826D01*
X135529575Y-54421993D01*
X135562488Y-54479000D01*
X134511464Y-54479000D01*
X134518376Y-54522642D01*
X134518376Y-54522643D01*
X134579373Y-54710371D01*
X134668985Y-54886242D01*
X134784996Y-55045919D01*
X134785000Y-55045924D01*
X134924575Y-55185499D01*
X134924580Y-55185503D01*
X135084257Y-55301514D01*
X135260126Y-55391126D01*
X135447853Y-55452123D01*
X135642803Y-55483000D01*
X136245500Y-55483000D01*
X136245500Y-54729000D01*
X136745500Y-54729000D01*
X136745500Y-55483000D01*
X137348197Y-55483000D01*
X137543146Y-55452123D01*
X137730873Y-55391126D01*
X137906742Y-55301514D01*
X138066419Y-55185503D01*
X138066424Y-55185499D01*
X138205999Y-55045924D01*
X138206003Y-55045919D01*
X138322014Y-54886242D01*
X138411626Y-54710371D01*
X138472623Y-54522643D01*
X138472623Y-54522642D01*
X138479536Y-54479000D01*
X137428512Y-54479000D01*
X137461425Y-54421993D01*
X137495500Y-54294826D01*
X137495500Y-54163174D01*
X137461425Y-54036007D01*
X137428512Y-53979000D01*
X138479536Y-53979000D01*
X138472623Y-53935357D01*
X138472623Y-53935356D01*
X138411626Y-53747628D01*
X138322014Y-53571757D01*
X138206003Y-53412080D01*
X138205999Y-53412075D01*
X138066424Y-53272500D01*
X138066419Y-53272496D01*
X137906742Y-53156485D01*
X137730873Y-53066873D01*
X137543146Y-53005876D01*
X137348197Y-52975000D01*
X136745500Y-52975000D01*
X136745500Y-53729000D01*
X136245500Y-53729000D01*
X136245500Y-52975000D01*
X135642803Y-52975000D01*
X135447853Y-53005876D01*
X135260126Y-53066873D01*
X135084257Y-53156485D01*
X134924580Y-53272496D01*
X134924575Y-53272500D01*
X134785000Y-53412075D01*
X134784996Y-53412080D01*
X134668985Y-53571757D01*
X134579373Y-53747628D01*
X134518376Y-53935356D01*
X134518376Y-53935357D01*
X134511464Y-53979000D01*
X124714536Y-53979000D01*
X124707623Y-53935357D01*
X124707623Y-53935356D01*
X124646626Y-53747628D01*
X124557014Y-53571757D01*
X124441003Y-53412080D01*
X124440999Y-53412075D01*
X124301424Y-53272500D01*
X124301419Y-53272496D01*
X124141742Y-53156485D01*
X123965873Y-53066873D01*
X123778146Y-53005876D01*
X123583197Y-52975000D01*
X122980500Y-52975000D01*
X122980500Y-53729000D01*
X122480500Y-53729000D01*
X122480500Y-52975000D01*
X121877803Y-52975000D01*
X121682853Y-53005876D01*
X121495126Y-53066873D01*
X121319257Y-53156485D01*
X121159580Y-53272496D01*
X121159575Y-53272500D01*
X121020000Y-53412075D01*
X121019996Y-53412080D01*
X120903985Y-53571757D01*
X120814373Y-53747628D01*
X120753376Y-53935356D01*
X120753376Y-53935357D01*
X120746464Y-53979000D01*
X110949536Y-53979000D01*
X110942623Y-53935357D01*
X110942623Y-53935356D01*
X110881626Y-53747628D01*
X110792014Y-53571757D01*
X110676003Y-53412080D01*
X110675999Y-53412075D01*
X110536424Y-53272500D01*
X110536419Y-53272496D01*
X110376742Y-53156485D01*
X110200873Y-53066873D01*
X110013146Y-53005876D01*
X109818197Y-52975000D01*
X109215500Y-52975000D01*
X109215500Y-53729000D01*
X108715500Y-53729000D01*
X108715500Y-52975000D01*
X108112803Y-52975000D01*
X107917853Y-53005876D01*
X107730126Y-53066873D01*
X107554257Y-53156485D01*
X107394580Y-53272496D01*
X107394575Y-53272500D01*
X107255000Y-53412075D01*
X107254996Y-53412080D01*
X107138985Y-53571757D01*
X107049373Y-53747628D01*
X106988376Y-53935356D01*
X106988376Y-53935357D01*
X106981464Y-53979000D01*
X97184536Y-53979000D01*
X97177623Y-53935357D01*
X97177623Y-53935356D01*
X97116626Y-53747628D01*
X97027014Y-53571757D01*
X96911003Y-53412080D01*
X96910999Y-53412075D01*
X96771424Y-53272500D01*
X96771419Y-53272496D01*
X96611742Y-53156485D01*
X96435873Y-53066873D01*
X96248146Y-53005876D01*
X96053197Y-52975000D01*
X95450500Y-52975000D01*
X95450500Y-53729000D01*
X94950500Y-53729000D01*
X94950500Y-52975000D01*
X94347803Y-52975000D01*
X94152853Y-53005876D01*
X93965126Y-53066873D01*
X93789257Y-53156485D01*
X93629580Y-53272496D01*
X93629575Y-53272500D01*
X93490000Y-53412075D01*
X93489996Y-53412080D01*
X93373985Y-53571757D01*
X93284373Y-53747628D01*
X93223376Y-53935356D01*
X93223376Y-53935357D01*
X93216464Y-53979000D01*
X79494500Y-53979000D01*
X79494500Y-52774500D01*
X79514185Y-52707461D01*
X79566989Y-52661706D01*
X79618500Y-52650500D01*
X165364500Y-52650500D01*
X165431539Y-52670185D01*
G37*
%TD.AperFunction*%
%TD*%
M02*
